<?xml version="1.0" encoding="UTF-8" standalone="no"?>
<svg width="126px" height="126px" viewBox="0 0 126 126" version="1.1" xmlns="http://www.w3.org/2000/svg" xmlns:xlink="http://www.w3.org/1999/xlink">
    <!-- Generator: Sketch 39.1 (31720) - http://www.bohemiancoding.com/sketch -->
    <title>Group 2</title>
    <desc>Created with Sketch.</desc>
    <defs>
        <ellipse id="path-1" cx="52.8195218" cy="52.8731202" rx="52.8195218" ry="52.8731202"></ellipse>
        <filter x="-50%" y="-50%" width="200%" height="200%" filterUnits="objectBoundingBox" id="filter-2">
            <feMorphology radius="6.5" operator="dilate" in="SourceAlpha" result="shadowSpreadOuter1"></feMorphology>
            <feOffset dx="0" dy="3" in="shadowSpreadOuter1" result="shadowOffsetOuter1"></feOffset>
            <feGaussianBlur stdDeviation="1.5" in="shadowOffsetOuter1" result="shadowBlurOuter1"></feGaussianBlur>
            <feComposite in="shadowBlurOuter1" in2="SourceAlpha" operator="out" result="shadowBlurOuter1"></feComposite>
            <feColorMatrix values="0 0 0 0 0.143893495   0 0 0 0 0.140362018   0 0 0 0 0.140362018  0 0 0 0.371574955 0" type="matrix" in="shadowBlurOuter1"></feColorMatrix>
        </filter>
        <mask id="mask-3" maskContentUnits="userSpaceOnUse" maskUnits="objectBoundingBox" x="-6" y="-6" width="117.639044" height="117.74624">
            <rect x="-6" y="-6" width="117.639044" height="117.74624" fill="white"></rect>
            <use xlink:href="#path-1" fill="black"></use>
        </mask>
    </defs>
    <g id="Symbols" stroke="none" stroke-width="1" fill="none" fill-rule="evenodd">
        <g id="ModeDefault" transform="translate(-3.000000, -6.000000)">
            <g transform="translate(13.000000, 13.000000)" id="Group-2">
                <g>
                    <g id="Oval-1">
                        <use fill="black" fill-opacity="1" filter="url(#filter-2)" xlink:href="#path-1"></use>
                        <use fill="#FFFFFF" fill-rule="evenodd" xlink:href="#path-1"></use>
                        <use stroke="#009B63" mask="url(#mask-3)" stroke-width="12" xlink:href="#path-1"></use>
                    </g>
                    <g id="Group" transform="translate(29.617941, 27.066188)" fill="#009B63">
                        <path d="M38.8855375,47.3587457 L7.77710751,47.3587457 C6.53277031,47.3587457 5.44397525,46.349461 5.44397525,45.0296271 L5.44397525,24.8439322 L1.63319258,24.8439322 L1.39987935,24.6110203 C0.15554215,23.3688237 0.15554215,21.4278915 1.39987935,20.1856949 L20.6093349,1.00928475 C21.3092746,0.310549152 22.3202985,2.3869795e-14 23.3313225,0.155274576 C24.3423465,2.3869795e-14 25.3533705,0.310549152 26.0533101,1.00928475 L45.2627657,20.1856949 C45.8849343,20.8067932 46.2737897,21.816078 46.1960186,22.7477254 C46.1182475,23.5240983 45.8071632,24.2228339 45.1849946,24.6886576 L44.9516814,24.8439322 L41.2186698,24.8439322 L41.2186698,45.0296271 C41.2186698,46.349461 40.1298747,47.3587457 38.8855375,47.3587457 L38.8855375,47.3587457 Z M2.33313225,23.2911864 L6.99939676,23.2911864 L6.99939676,45.0296271 C6.99939676,45.4954508 7.31048106,45.806 7.77710751,45.806 L38.8855375,45.806 C39.352164,45.806 39.6632483,45.4954508 39.6632483,45.0296271 L39.6632483,23.2911864 L44.4072839,23.2911864 C44.562826,23.2911864 44.6405971,22.8253627 44.6405971,22.6700881 C44.6405971,22.2042644 44.4850549,21.6608034 44.1739706,21.3502542 L24.886744,2.09620678 C24.4978886,1.70802034 23.9534911,1.55274576 23.4868647,1.70802034 L23.3313225,1.70802034 L23.1757804,1.70802034 C22.6313828,1.63038305 22.0869853,1.78565763 21.775901,2.09620678 L2.4886744,21.3502542 C1.94427688,21.816078 1.8665058,22.5148135 2.33313225,23.2911864 L2.33313225,23.2911864 Z" id="Shape"></path>
                        <path d="M28.7752978,47.3587457 L17.8873473,47.3587457 L17.8873473,31.8312881 L28.7752978,31.8312881 L28.7752978,47.3587457 L28.7752978,47.3587457 Z M19.4427688,45.806 L27.2198763,45.806 L27.2198763,33.3840339 L19.4427688,33.3840339 L19.4427688,45.806 L19.4427688,45.806 Z" id="Shape"></path>
                        <path d="M6.76608353,24.6110203 L5.67728848,23.5240983 L21.6981299,6.75444406 C22.5536118,5.82279661 24.1090333,5.82279661 24.9645151,6.75444406 L40.9853566,23.5240983 L39.8965615,24.6110203 L23.797949,7.8413661 C23.5646357,7.53081694 23.0202382,7.53081694 22.786925,7.8413661 L6.76608353,24.6110203 L6.76608353,24.6110203 Z" id="Shape"></path>
                    </g>
                </g>
            </g>
        </g>
    </g>
</svg>