<?xml version="1.0" encoding="UTF-8" standalone="no"?>
<svg width="305px" height="626px" viewBox="0 0 305 626" version="1.1" xmlns="http://www.w3.org/2000/svg" xmlns:xlink="http://www.w3.org/1999/xlink">
    <!-- Generator: Sketch 39.1 (31720) - http://www.bohemiancoding.com/sketch -->
    <title>Page 1</title>
    <desc>Created with Sketch.</desc>
    <defs>
        <polygon id="path-1" points="0 625.784884 304.634243 625.784884 304.634243 0.521284884 0 0.521284884"></polygon>
    </defs>
    <g id="Page-1" stroke="none" stroke-width="1" fill="none" fill-rule="evenodd">
        <g id="draft" transform="translate(-30.000000, -29.000000)">
            <g id="Page-1" transform="translate(30.000000, 28.000000)">
                <polygon id="Stroke-1" stroke="#221F20" stroke-width="0.5" stroke-linecap="round" stroke-linejoin="round" points="262.388705 274.235948 286.499502 274.235948 286.499502 129.570279 262.388705 129.570279"></polygon>
                <polygon id="Stroke-2" stroke="#221F20" stroke-width="0.5" stroke-linecap="round" stroke-linejoin="round" points="30.6032869 414.398395 54.7140837 414.398395 54.7140837 379.954709 30.6032869 379.954709"></polygon>
                <polygon id="Stroke-3" stroke="#221F20" stroke-width="0.5" stroke-linecap="round" stroke-linejoin="round" points="30.6032869 368.294453 54.7140837 368.294453 54.7140837 333.850767 30.6032869 333.850767"></polygon>
                <polygon id="Stroke-4" stroke="#221F20" stroke-width="0.5" stroke-linecap="round" stroke-linejoin="round" points="93.6082669 508.456901 181.098307 508.456901 181.098307 498.123552 93.6082669 498.123552"></polygon>
                <polygon id="Fill-5" fill="#060707" points="0.608055777 2.12669651 0.608055777 115.792319 0.608055777 625.567621 186.60945 625.567621 186.60945 611.789417 181.443892 611.789417 181.443892 560.122673 178.687956 560.122673 178.687956 611.789417 173.866283 611.789417 173.866283 560.122673 171.109131 560.122673 171.109131 611.789417 109.109072 611.789417 109.109072 560.122673 106.353135 560.122673 106.353135 611.789417 101.531462 611.789417 101.531462 560.122673 98.7755259 560.122673 98.7755259 611.789417 14.3853068 611.789417 14.3853068 508.457144 38.4973187 508.457144 38.4973187 498.123795 14.3853068 498.123795 14.3853068 129.570522 14.3853068 115.792319 14.3853068 2.12669651"></polygon>
                <polygon id="Stroke-6" stroke="#221F20" points="38.4969542 498.123674 38.4969542 508.457023 14.3849422 508.457023 14.3849422 611.789296 98.7751614 611.789296 98.7751614 560.123767 101.531098 560.123767 101.531098 611.789296 106.352771 611.789296 106.352771 560.123767 109.108707 560.123767 109.108707 611.789296 171.109982 611.789296 171.109982 560.123767 173.864703 560.123767 173.864703 611.789296 178.687592 611.789296 178.687592 560.123767 181.443528 560.123767 181.443528 611.789296 186.610301 611.789296 186.610301 625.567499 0.607691235 625.567499 0.607691235 115.792197 0.607691235 2.126575 14.3849422 2.126575 14.3849422 115.792197 14.3849422 129.570401 14.3849422 498.123674"></polygon>
                <polygon id="Fill-8" fill="#221F20" points="289.944179 2.12669651 248.609996 2.12669651 248.609996 12.4600453 289.944179 12.4600453 289.944179 119.237173 289.944179 129.570522 289.944179 611.789417 248.609996 611.789417 248.609996 625.567621 303.722645 625.567621 303.722645 115.792319 303.722645 2.12669651"></polygon>
                <polygon id="Stroke-9" stroke="#221F20" stroke-width="1.5" stroke-linecap="round" stroke-linejoin="round" points="289.944665 2.126575 303.723131 2.126575 303.723131 115.792197 303.723131 625.567499 248.610482 625.567499 248.610482 611.789296 289.944665 611.789296 289.944665 129.570401 289.944665 119.237052 289.944665 12.4599238 248.610482 12.4599238 248.610482 2.126575"></polygon>
                <polygon id="Stroke-11" stroke="#221F20" stroke-width="0.5" stroke-linecap="round" stroke-linejoin="round" points="248.610239 71.0150407 289.944422 71.0150407 289.944422 67.570186 248.610239 67.570186"></polygon>
                <polygon id="Stroke-12" stroke="#221F20" stroke-width="0.5" stroke-linecap="round" stroke-linejoin="round" points="245.165319 255.722436 248.610239 255.722436 248.610239 144.640151 245.165319 144.640151"></polygon>
                <polygon id="Stroke-13" stroke="#221F20" stroke-width="0.5" stroke-linecap="round" stroke-linejoin="round" points="234.832988 126.125424 289.944422 126.125424 289.944422 120.614872 234.832988 120.614872"></polygon>
                <polygon id="Stroke-14" stroke="#221F20" stroke-width="0.75" stroke-linecap="round" stroke-linejoin="round" points="234.831773 126.125424 239.425 126.125424 239.425 120.614872 234.831773 120.614872"></polygon>
                <polygon id="Stroke-15" stroke="#221F20" stroke-width="0.75" stroke-linecap="round" stroke-linejoin="round" points="285.351195 126.125424 289.944422 126.125424 289.944422 120.614872 285.351195 120.614872"></polygon>
                <polygon id="Stroke-16" stroke="#221F20" stroke-width="0.75" stroke-linecap="round" stroke-linejoin="round" points="230.239761 126.125424 234.832988 126.125424 234.832988 120.614872 230.239761 120.614872"></polygon>
                <polygon id="Stroke-17" stroke="#221F20" stroke-width="0.5" stroke-linecap="round" stroke-linejoin="round" points="179.720339 126.125424 184.313566 126.125424 184.313566 120.614872 179.720339 120.614872"></polygon>
                <polygon id="Stroke-18" stroke="#221F20" stroke-width="0.5" stroke-linecap="round" stroke-linejoin="round" points="179.721554 126.125424 234.832988 126.125424 234.832988 120.614872 179.721554 120.614872"></polygon>
                <polygon id="Stroke-19" stroke="#221F20" stroke-width="0.5" stroke-linecap="round" stroke-linejoin="round" points="175.128327 126.125424 179.720339 126.125424 179.720339 120.614872 175.128327 120.614872"></polygon>
                <polygon id="Stroke-20" stroke="#221F20" stroke-width="0.5" stroke-linecap="round" stroke-linejoin="round" points="124.61012 126.125424 129.202131 126.125424 129.202131 120.614872 124.61012 120.614872"></polygon>
                <polygon id="Stroke-21" stroke="#221F20" stroke-width="0.5" stroke-linecap="round" stroke-linejoin="round" points="124.608904 126.125424 179.720339 126.125424 179.720339 120.614872 124.608904 120.614872"></polygon>
                <polygon id="Stroke-22" stroke="#221F20" stroke-width="0.5" stroke-linecap="round" stroke-linejoin="round" points="120.016892 126.125424 124.608904 126.125424 124.608904 120.614872 120.016892 120.614872"></polygon>
                <polygon id="Stroke-23" stroke="#221F20" stroke-width="0.5" stroke-linecap="round" stroke-linejoin="round" points="69.4974701 126.125424 74.0894821 126.125424 74.0894821 120.614872 69.4974701 120.614872"></polygon>
                <polygon id="Stroke-24" stroke="#221F20" stroke-width="0.5" stroke-linecap="round" stroke-linejoin="round" points="69.4974701 126.125424 124.608904 126.125424 124.608904 120.614872 69.4974701 120.614872"></polygon>
                <polygon id="Stroke-25" stroke="#221F20" stroke-width="0.5" stroke-linecap="round" stroke-linejoin="round" points="64.904243 126.125424 69.4974701 126.125424 69.4974701 120.614872 64.904243 120.614872"></polygon>
                <polygon id="Stroke-26" stroke="#221F20" stroke-width="0.5" stroke-linecap="round" stroke-linejoin="round" points="14.3848207 126.125424 18.9780478 126.125424 18.9780478 120.614872 14.3848207 120.614872"></polygon>
                <polygon id="Stroke-27" stroke="#221F20" stroke-width="0.5" stroke-linecap="round" stroke-linejoin="round" points="14.3860359 126.125424 69.4974701 126.125424 69.4974701 120.614872 14.3860359 120.614872"></polygon>
                <polygon id="Stroke-28" stroke="#221F20" stroke-width="0.75" stroke-linecap="round" stroke-linejoin="round" points="286.499502 274.235948 289.944422 274.235948 289.944422 129.570279 286.499502 129.570279"></polygon>
                <polygon id="Stroke-29" stroke="#221F20" stroke-width="0.5" stroke-linecap="round" stroke-linejoin="round" points="248.610239 129.570279 289.944422 129.570279 289.944422 126.125424 248.610239 126.125424"></polygon>
                <polygon id="Stroke-30" stroke="#221F20" stroke-width="0.5" stroke-linecap="round" stroke-linejoin="round" points="190.0551 615.234029 245.166534 615.234029 245.166534 611.789174 190.0551 611.789174"></polygon>
                <polygon id="Stroke-31" stroke="#221F20" stroke-width="0.5" stroke-linecap="round" stroke-linejoin="round" points="248.610239 322.459052 289.944422 322.459052 289.944422 319.014198 248.610239 319.014198"></polygon>
                <polygon id="Stroke-32" stroke="#221F20" stroke-width="0.5" stroke-linecap="round" stroke-linejoin="round" points="248.610239 277.680802 289.944422 277.680802 289.944422 274.235948 248.610239 274.235948"></polygon>
                <polygon id="Stroke-33" stroke="#221F20" stroke-width="0.5" stroke-linecap="round" stroke-linejoin="round" points="248.610239 460.235012 289.944422 460.235012 289.944422 456.790157 248.610239 456.790157"></polygon>
                <polygon id="Stroke-34" stroke="#221F20" stroke-width="0.5" stroke-linecap="round" stroke-linejoin="round" points="135.631556 467.12387 135.631556 498.123917 139.076476 498.123917 139.076476 456.790522 135.631556 456.790522 135.631556 463.679016 83.9638267 463.679016 83.9638267 456.790522 80.5201215 456.790522 80.5201215 498.123917 83.9638267 498.123917 83.9638267 467.12387"></polygon>
                <polygon id="Stroke-35" stroke="#221F20" stroke-width="0.5" stroke-linecap="round" stroke-linejoin="round" points="177.653386 498.123552 181.098307 498.123552 181.098307 456.790157 177.653386 456.790157"></polygon>
                <polygon id="Stroke-36" stroke="#221F20" stroke-width="0.75" stroke-linecap="round" stroke-linejoin="round" points="248.610239 501.568407 289.944422 501.568407 289.944422 498.123552 248.610239 498.123552"></polygon>
                <polygon id="Stroke-37" stroke="#221F20" stroke-width="0.5" stroke-linecap="round" stroke-linejoin="round" points="38.4968327 498.123552 41.941753 498.123552 41.941753 456.790157 38.4968327 456.790157"></polygon>
                <polygon id="Stroke-38" stroke="#221F20" stroke-width="0.5" stroke-linecap="round" stroke-linejoin="round" points="38.4969542 322.45808 20.2406992 322.45808 20.2406992 425.790353 38.4969542 425.790353 38.4969542 431.645999 14.3849422 431.645999 14.3849422 316.602435 38.4969542 316.602435"></polygon>
                <polygon id="Stroke-39" stroke="#221F20" stroke-width="0.75" stroke-linecap="round" stroke-linejoin="round" points="248.610239 15.904657 289.944422 15.904657 289.944422 12.4598023 248.610239 12.4598023"></polygon>
                <polygon id="Stroke-40" stroke="#221F20" stroke-width="0.5" stroke-linecap="round" stroke-linejoin="round" points="14.3848207 316.602192 38.4968327 316.602192 38.4968327 275.268797 14.3848207 275.268797"></polygon>
                <polygon id="Stroke-41" stroke="#221F20" stroke-width="0.5" stroke-linecap="round" stroke-linejoin="round" points="38.4968327 498.123552 181.098307 498.123552 181.098307 456.790157 38.4968327 456.790157"></polygon>
                <polygon id="Stroke-42" stroke="#221F20" stroke-width="0.5" stroke-linecap="round" stroke-linejoin="round" points="83.9637052 463.679866 135.631434 463.679866 135.631434 460.235012 83.9637052 460.235012"></polygon>
                <polygon id="Stroke-43" stroke="#221F20" stroke-width="0.5" stroke-linecap="round" stroke-linejoin="round" points="83.9637052 460.235012 135.631434 460.235012 135.631434 456.790157 83.9637052 456.790157"></polygon>
                <polygon id="Stroke-44" stroke="#221F20" stroke-width="0.5" stroke-linecap="round" stroke-linejoin="round" points="41.941753 458.511977 61.2308765 458.511977 61.2308765 456.790157 41.941753 456.790157"></polygon>
                <polygon id="Stroke-45" stroke="#221F20" stroke-width="0.5" stroke-linecap="round" stroke-linejoin="round" points="61.2308765 458.511977 80.52 458.511977 80.52 456.790157 61.2308765 456.790157"></polygon>
                <polygon id="Stroke-46" stroke="#221F20" stroke-width="0.5" stroke-linecap="round" stroke-linejoin="round" points="158.365478 458.511977 177.654602 458.511977 177.654602 456.790157 158.365478 456.790157"></polygon>
                <polygon id="Stroke-47" stroke="#221F20" stroke-width="0.5" stroke-linecap="round" stroke-linejoin="round" points="139.076355 458.511977 158.365478 458.511977 158.365478 456.790157 139.076355 456.790157"></polygon>
                <polygon id="Stroke-48" stroke="#221F20" stroke-width="0.5" stroke-linecap="round" stroke-linejoin="round" points="248.611454 41.7380291 250.333307 41.7380291 250.333307 15.904657 248.611454 15.904657"></polygon>
                <polygon id="Stroke-49" stroke="#221F20" stroke-width="0.5" stroke-linecap="round" stroke-linejoin="round" points="248.611454 67.5714012 250.333307 67.5714012 250.333307 41.7380291 248.611454 41.7380291"></polygon>
                <polygon id="Stroke-50" stroke="#221F20" stroke-width="0.5" stroke-linecap="round" stroke-linejoin="round" points="248.611454 498.123552 250.333307 498.123552 250.333307 460.235012 248.611454 460.235012"></polygon>
                <polygon id="Stroke-51" stroke="#221F20" stroke-width="0.5" stroke-linecap="round" stroke-linejoin="round" points="14.3860359 9.01494767 248.611454 9.01494767 248.611454 5.57009302 14.3860359 5.57009302"></polygon>
                <polygon id="Stroke-52" stroke="#221F20" stroke-width="0.5" stroke-linecap="round" stroke-linejoin="round" points="171.108645 511.901756 181.098307 511.901756 181.098307 508.456901 171.108645 508.456901"></polygon>
                <g id="Group-56" transform="translate(185.916335, 611.682203)" stroke-linecap="round" stroke-width="0.5" stroke="#221F20" stroke-linejoin="round">
                    <polygon id="Stroke-53" points="59.2489841 13.8851744 62.6939044 13.8851744 62.6939044 0.10697093 59.2489841 0.10697093"></polygon>
                    <polygon id="Stroke-55" points="0.693844622 13.8851744 4.13876494 13.8851744 4.13876494 0.10697093 0.693844622 0.10697093"></polygon>
                </g>
                <polygon id="Stroke-57" stroke="#221F20" stroke-width="0.5" stroke-linecap="round" stroke-linejoin="round" points="174.50739 567.01214 177.952311 567.01214 177.952311 511.901756 174.50739 511.901756"></polygon>
                <polygon id="Stroke-58" stroke="#221F20" stroke-width="0.5" stroke-linecap="round" stroke-linejoin="round" points="95.1587849 511.901756 105.147231 511.901756 105.147231 508.456901 95.1587849 508.456901"></polygon>
                <polygon id="Stroke-59" stroke="#221F20" stroke-width="0.5" stroke-linecap="round" stroke-linejoin="round" points="102.234542 567.01214 105.679462 567.01214 105.679462 511.901756 102.234542 511.901756"></polygon>
                <polygon id="Stroke-60" stroke="#221F20" stroke-width="0.5" stroke-linecap="round" stroke-linejoin="round" points="90.1645618 508.456901 93.6094821 508.456901 93.6094821 498.123552 90.1645618 498.123552"></polygon>
                <polygon id="Stroke-61" stroke="#221F20" stroke-width="0.5" stroke-linecap="round" stroke-linejoin="round" points="38.4968327 508.456901 41.941753 508.456901 41.941753 498.123552 38.4968327 498.123552"></polygon>
                <polygon id="Stroke-62" stroke="#221F20" stroke-width="0.5" stroke-linecap="round" stroke-linejoin="round" points="41.941753 508.456901 90.1645618 508.456901 90.1645618 505.012047 41.941753 505.012047"></polygon>
                <path d="M288.566819,511.901391 L249.988572,511.901391" id="Stroke-63" stroke="#221F20" stroke-width="0.5" stroke-linecap="round" stroke-linejoin="round"></path>
                <polygon id="Stroke-64" stroke="#221F20" stroke-width="0.255" stroke-linecap="round" stroke-linejoin="round" points="288.566454 511.901756 289.944422 511.901756 289.944422 501.568407 288.566454 501.568407"></polygon>
                <polygon id="Stroke-65" stroke="#221F20" stroke-width="0.5" stroke-linecap="round" stroke-linejoin="round" points="248.610239 511.901756 249.988207 511.901756 249.988207 501.568407 248.610239 501.568407"></polygon>
                <polygon id="Stroke-66" stroke="#221F20" stroke-width="0.5" stroke-linecap="round" stroke-linejoin="round" points="14.3848207 12.4598023 248.610239 12.4598023 248.610239 2.12645349 14.3848207 2.12645349"></polygon>
                <path d="M76.3863386,130.603614 L76.3863386,264.935934" id="Stroke-67" stroke="#221F20" stroke-width="0.5" stroke-linecap="round" stroke-linejoin="round"></path>
                <path d="M33.5267908,264.936177 L33.5267908,130.603857" id="Stroke-68" stroke="#221F20" stroke-width="0.5" stroke-linecap="round" stroke-linejoin="round"></path>
                <path d="M21.2744183,275.269404 L14.3857928,275.269404" id="Stroke-69" stroke="#221F20" stroke-width="0.5" stroke-linecap="round" stroke-linejoin="round"></path>
                <path d="M23.5707888,275.269404 L23.5707888,264.936055" id="Stroke-70" stroke="#221F20" stroke-width="0.5" stroke-linecap="round" stroke-linejoin="round"></path>
                <path d="M23.5707888,275.269404 L21.2741753,275.269404" id="Stroke-71" stroke="#221F20" stroke-width="0.5" stroke-linecap="round" stroke-linejoin="round"></path>
                <path d="M76.3863386,264.936177 L33.5174343,264.936177" id="Stroke-72" stroke="#221F20" stroke-width="0.5" stroke-linecap="round" stroke-linejoin="round"></path>
                <path d="M76.3863386,275.269404 L23.5703028,275.269404" id="Stroke-73" stroke="#221F20" stroke-width="0.5" stroke-linecap="round" stroke-linejoin="round"></path>
                <g id="Group-142" transform="translate(0.000000, 0.693831)">
                    <path d="M263.856958,538.806982 C262.929807,539.472866 262.718373,540.764534 263.384269,541.691668 C264.05138,542.617587 265.341859,542.829017 266.26901,542.163133 C267.196161,541.497249 267.407596,540.205581 266.741699,539.279662 C266.075803,538.352528 264.78411,538.141098 263.856958,538.806982 L263.856958,538.806982 Z" id="Stroke-74" stroke="#221F20" stroke-width="0.5" stroke-linecap="round" stroke-linejoin="round"></path>
                    <mask id="mask-2" fill="white">
                        <use xlink:href="#path-1"></use>
                    </mask>
                    <g id="Clip-77"></g>
                    <polygon id="Stroke-76" stroke="#221F20" stroke-width="0.5" stroke-linecap="round" stroke-linejoin="round" mask="url(#mask-2)" points="249.988207 554.607017 272.722251 554.607017 272.722251 526.362855 249.988207 526.362855"></polygon>
                    <polygon id="Stroke-78" stroke="#221F20" stroke-width="0.5" stroke-linecap="round" stroke-linejoin="round" mask="url(#mask-2)" points="248.610239 555.984959 279.610876 555.984959 279.610876 524.984913 248.610239 524.984913"></polygon>
                    <path d="M76.3863386,274.575573 L76.3863386,264.242224" id="Stroke-79" stroke="#221F20" stroke-width="0.5" stroke-linecap="round" stroke-linejoin="round" mask="url(#mask-2)"></path>
                    <path d="M33.5267908,219.464824 L76.3859741,219.464824" id="Stroke-80" stroke="#221F20" stroke-width="0.5" stroke-linecap="round" stroke-linejoin="round" mask="url(#mask-2)"></path>
                    <polygon id="Stroke-81" stroke="#221F20" stroke-width="0.5" stroke-linecap="round" stroke-linejoin="round" mask="url(#mask-2)" points="248.610239 569.763163 289.944422 569.763163 289.944422 500.874576 248.610239 500.874576"></polygon>
                    <polygon id="Stroke-82" stroke="#221F20" stroke-width="0.5" stroke-linecap="round" stroke-linejoin="round" mask="url(#mask-2)" points="248.610239 497.429721 289.944422 497.429721 289.944422 459.54118 248.610239 459.54118"></polygon>
                    <polygon id="Stroke-83" stroke="#221F20" stroke-width="0.5" stroke-linecap="round" stroke-linejoin="round" mask="url(#mask-2)" points="248.610239 456.096326 289.944422 456.096326 289.944422 321.764006 248.610239 321.764006"></polygon>
                    <path d="M286.273608,276.986728 L286.273608,318.320123" id="Stroke-84" stroke="#221F20" stroke-width="0.5" stroke-linecap="round" stroke-linejoin="round" mask="url(#mask-2)"></path>
                    <path d="M248.610725,317.672345 L248.610725,317.127973" id="Stroke-85" stroke="#221F20" stroke-width="0.5" stroke-linecap="round" stroke-linejoin="round" mask="url(#mask-2)"></path>
                    <polygon id="Stroke-86" stroke="#221F20" stroke-width="0.5" stroke-linecap="round" stroke-linejoin="round" mask="url(#mask-2)" points="107.386733 238.409459 148.720916 238.409459 148.720916 155.743884 107.386733 155.743884"></polygon>
                    <path d="M150.77912,577.789735 C150.77912,574.638938 149.703721,572.641287 147.284378,570.693456 C146.048582,569.698276 144.719219,569.01781 143.228243,568.503816 C139.161171,567.102787 134.577665,567.529293 130.866629,569.737159 C126.273402,572.469956 125.978124,576.054549 125.978124,580.725456 L125.978124,593.537642 L125.978124,596.740688 L125.978124,598.342212 C125.978124,598.579159 125.867546,598.889014 126.233303,598.889014 L127.03408,598.889014 L133.440295,598.889014 L146.252725,598.889014 L149.455833,598.889014 C149.753542,598.889014 150.77912,599.167276 150.77912,598.609537 L150.77912,597.008014 L150.77912,590.601921 L150.77912,577.789735 L150.77912,577.789735 Z" id="Stroke-87" stroke="#221F20" stroke-width="0.5" stroke-linecap="round" stroke-linejoin="round" mask="url(#mask-2)"></path>
                    <path d="M152.165108,578.029356 C152.165108,571.867501 147.232857,567.833315 141.710048,566.664373 C136.420546,565.545251 130.043494,567.156495 126.678773,571.767862 C124.009112,575.429007 124.60939,579.082862 124.60939,583.022269 L124.60939,588.056495 L124.60939,604.788647 L124.60939,608.972292 L124.60939,611.063507 C124.60939,611.390373 124.935048,611.096315 125.099092,611.096315 L125.622817,611.096315 L126.667837,611.096315 L135.034072,611.096315 L151.766542,611.096315 C151.918434,611.096315 152.165108,611.237269 152.165108,610.971158 L152.165108,610.448658 L152.165108,609.402443 L152.165108,607.311228 L152.165108,603.127583 L152.165108,594.761507 L152.165108,578.029356 L152.165108,578.029356 Z" id="Stroke-88" stroke="#221F20" stroke-width="0.5" stroke-linecap="round" stroke-linejoin="round" mask="url(#mask-2)"></path>
                    <path d="M250.229412,317.672345 L250.229412,317.127973" id="Stroke-89" stroke="#221F20" stroke-width="0.5" stroke-linecap="round" stroke-linejoin="round" mask="url(#mask-2)"></path>
                    <polygon id="Stroke-90" stroke="#221F20" stroke-width="0.5" stroke-linecap="round" stroke-linejoin="round" mask="url(#mask-2)" points="248.610239 66.8775698 289.944422 66.8775698 289.944422 15.2108256 248.610239 15.2108256"></polygon>
                    <polyline id="Stroke-91" stroke="#221F20" stroke-width="0.5" mask="url(#mask-2)" points="33.5267908 25.8881738 32.1087231 25.8881738 27.9991215 25.8881738 21.2745398 25.8881738"></polyline>
                    <polyline id="Stroke-92" stroke="#221F20" stroke-width="0.5" mask="url(#mask-2)" points="33.5267908 115.443216 32.1184442 115.443216 28.0088426 115.443216 21.2830458 115.443216"></polyline>
                    <path d="M14.3854283,115.443216 L14.3854283,15.554582" id="Stroke-93" stroke="#221F20" stroke-width="0.113" stroke-linecap="round" stroke-linejoin="round" mask="url(#mask-2)"></path>
                    <path d="M21.2744183,115.443216 L14.3857928,115.443216" id="Stroke-94" stroke="#221F20" stroke-width="0.5" mask="url(#mask-2)"></path>
                    <path d="M21.2744183,115.443216 L21.2744183,15.554582" id="Stroke-95" stroke="#221F20" stroke-width="0.5" mask="url(#mask-2)"></path>
                    <path d="M21.2744183,15.5549465 L14.3857928,15.5549465" id="Stroke-96" stroke="#221F20" stroke-width="0.5" mask="url(#mask-2)"></path>
                    <path d="M76.3863386,25.8881738 L76.3863386,115.443459" id="Stroke-97" stroke="#221F20" stroke-width="0.5" mask="url(#mask-2)"></path>
                    <path d="M33.5267908,115.443216 L33.5267908,25.8879308" id="Stroke-98" stroke="#221F20" stroke-width="0.5" mask="url(#mask-2)"></path>
                    <path d="M33.5267908,115.443216 L76.3859741,115.443216" id="Stroke-99" stroke="#221F20" stroke-width="0.5" mask="url(#mask-2)"></path>
                    <path d="M33.5267908,70.6656948 L76.3859741,70.6656948" id="Stroke-100" stroke="#221F20" stroke-width="0.5" mask="url(#mask-2)"></path>
                    <path d="M23.5707888,25.8881738 L23.5707888,15.554825" id="Stroke-101" stroke="#221F20" stroke-width="0.5" mask="url(#mask-2)"></path>
                    <path d="M23.5707888,15.5549465 L21.2741753,15.5549465" id="Stroke-102" stroke="#221F20" stroke-width="0.5" mask="url(#mask-2)"></path>
                    <path d="M76.3863386,15.5549465 L23.5703028,15.5549465" id="Stroke-103" stroke="#221F20" stroke-width="0.5" mask="url(#mask-2)"></path>
                    <path d="M33.5267908,25.8881738 L76.3859741,25.8881738" id="Stroke-104" stroke="#221F20" stroke-width="0.5" mask="url(#mask-2)"></path>
                    <path d="M76.3863386,25.8881738 L76.3863386,15.554825" id="Stroke-105" stroke="#221F20" stroke-width="0.5" mask="url(#mask-2)"></path>
                    <path d="M250.876839,317.672345 L248.610604,317.672345" id="Stroke-106" stroke="#221F20" stroke-width="0.5" stroke-linecap="round" stroke-linejoin="round" mask="url(#mask-2)"></path>
                    <path d="M248.610725,281.518869 L250.229291,281.518869" id="Stroke-107" stroke="#221F20" stroke-width="0.5" stroke-linecap="round" stroke-linejoin="round" mask="url(#mask-2)"></path>
                    <path d="M250.229412,281.518869 L250.229412,278.281799" id="Stroke-108" stroke="#221F20" stroke-width="0.5" stroke-linecap="round" stroke-linejoin="round" mask="url(#mask-2)"></path>
                    <path d="M14.3854283,274.575573 L14.3854283,129.909904" id="Stroke-109" stroke="#221F20" stroke-width="0.113" stroke-linecap="round" stroke-linejoin="round" mask="url(#mask-2)"></path>
                    <path d="M250.229412,278.281677 L248.610847,278.281677" id="Stroke-110" stroke="#221F20" stroke-width="0.5" stroke-linecap="round" stroke-linejoin="round" mask="url(#mask-2)"></path>
                    <path d="M248.610725,278.281677 L248.610725,281.518747" id="Stroke-111" stroke="#221F20" stroke-width="0.5" stroke-linecap="round" stroke-linejoin="round" mask="url(#mask-2)"></path>
                    <path d="M248.610725,313.891267 L250.229291,313.891267" id="Stroke-112" stroke="#221F20" stroke-width="0.5" stroke-linecap="round" stroke-linejoin="round" mask="url(#mask-2)"></path>
                    <path d="M250.229412,313.891267 L250.229412,317.128337" id="Stroke-113" stroke="#221F20" stroke-width="0.5" stroke-linecap="round" stroke-linejoin="round" mask="url(#mask-2)"></path>
                    <path d="M250.229412,317.128459 L248.610847,317.128459" id="Stroke-114" stroke="#221F20" stroke-width="0.5" stroke-linecap="round" stroke-linejoin="round" mask="url(#mask-2)"></path>
                    <polyline id="Stroke-115" stroke="#221F20" stroke-width="0.5" stroke-linecap="round" stroke-linejoin="round" mask="url(#mask-2)" points="67.204502 321.764249 67.204502 381.157917 67.204502 425.096522"></polyline>
                    <polyline id="Stroke-116" stroke="#221F20" stroke-width="0.5" stroke-linecap="round" stroke-linejoin="round" mask="url(#mask-2)" points="38.4969542 321.764249 161.809305 321.764249 161.809305 425.096522 38.4969542 425.096522"></polyline>
                    <polygon id="Stroke-117" stroke="#221F20" stroke-width="0.5" stroke-linecap="round" stroke-linejoin="round" mask="url(#mask-2)" points="139.076355 497.429721 177.654602 497.429721 177.654602 457.81936 139.076355 457.81936"></polygon>
                    <polygon id="Stroke-118" stroke="#221F20" stroke-width="0.5" stroke-linecap="round" stroke-linejoin="round" mask="url(#mask-2)" points="41.941753 497.429721 80.52 497.429721 80.52 457.81936 41.941753 457.81936"></polygon>
                    <path d="M248.610725,317.128459 L248.610725,313.891389" id="Stroke-119" stroke="#221F20" stroke-width="0.5" stroke-linecap="round" stroke-linejoin="round" mask="url(#mask-2)"></path>
                    <polygon id="Stroke-120" stroke="#221F20" stroke-width="0.5" stroke-linecap="round" stroke-linejoin="round" mask="url(#mask-2)" points="83.9637052 497.429721 135.631434 497.429721 135.631434 466.429674 83.9637052 466.429674"></polygon>
                    <path d="M33.5267908,174.687303 L76.3859741,174.687303" id="Stroke-121" stroke="#221F20" stroke-width="0.5" stroke-linecap="round" stroke-linejoin="round" mask="url(#mask-2)"></path>
                    <path d="M248.610725,277.634142 L250.87696,277.634142" id="Stroke-122" stroke="#221F20" stroke-width="0.5" stroke-linecap="round" stroke-linejoin="round" mask="url(#mask-2)"></path>
                    <path d="M248.610725,278.281677 L248.610725,277.63402" id="Stroke-123" stroke="#221F20" stroke-width="0.5" stroke-linecap="round" stroke-linejoin="round" mask="url(#mask-2)"></path>
                    <polyline id="Stroke-124" stroke="#221F20" stroke-width="0.5" stroke-linecap="round" stroke-linejoin="round" mask="url(#mask-2)" points="33.5177988 264.242345 32.1094522 264.242345 27.9998506 264.242345 21.2740538 264.242345"></polyline>
                    <polygon id="Stroke-125" stroke="#221F20" stroke-width="0.5" stroke-linecap="round" stroke-linejoin="round" mask="url(#mask-2)" points="14.3848207 497.430936 38.4968327 497.430936 38.4968327 430.95314 14.3848207 430.95314"></polygon>
                    <path d="M250.229412,278.281677 L250.229412,277.63402" id="Stroke-126" stroke="#221F20" stroke-width="0.5" stroke-linecap="round" stroke-linejoin="round" mask="url(#mask-2)"></path>
                    <path d="M33.5267908,129.909783 L76.3859741,129.909783" id="Stroke-127" stroke="#221F20" stroke-width="0.5" stroke-linecap="round" stroke-linejoin="round" mask="url(#mask-2)"></path>
                    <path d="M250.876839,318.319759 L250.876839,276.986363" id="Stroke-128" stroke="#221F20" stroke-width="0.5" stroke-linecap="round" stroke-linejoin="round" mask="url(#mask-2)"></path>
                    <polyline id="Stroke-129" stroke="#221F20" stroke-width="0.5" stroke-linecap="round" stroke-linejoin="round" mask="url(#mask-2)" points="33.5267908 129.909783 32.1184442 129.909783 28.0088426 129.909783 21.2830458 129.909783"></polyline>
                    <path d="M21.2744183,274.575573 L21.2744183,129.909904" id="Stroke-130" stroke="#221F20" stroke-width="0.5" stroke-linecap="round" stroke-linejoin="round" mask="url(#mask-2)"></path>
                    <path d="M250.876839,276.986728 L286.273851,276.986728" id="Stroke-131" stroke="#221F20" stroke-width="0.5" stroke-linecap="round" stroke-linejoin="round" mask="url(#mask-2)"></path>
                    <path d="M286.273608,318.319759 L250.876596,318.319759" id="Stroke-132" stroke="#221F20" stroke-width="0.5" stroke-linecap="round" stroke-linejoin="round" mask="url(#mask-2)"></path>
                    <path d="M21.2744183,129.909783 L14.3857928,129.909783" id="Stroke-133" stroke="#221F20" stroke-width="0.5" stroke-linecap="round" stroke-linejoin="round" mask="url(#mask-2)"></path>
                    <polygon id="Stroke-134" stroke="#221F20" stroke-width="0.5" stroke-linecap="round" stroke-linejoin="round" mask="url(#mask-2)" points="248.610239 611.096558 289.944422 611.096558 289.944422 569.763163 248.610239 569.763163"></polygon>
                    <polygon id="Stroke-135" stroke="#221F20" stroke-width="0.5" stroke-linecap="round" stroke-linejoin="round" mask="url(#mask-2)" points="252.744143 394.097448 285.811733 394.097448 285.811733 377.564576 252.744143 377.564576"></polygon>
                    <path d="M261.699843,391.341564 C258.655918,391.341564 256.189185,388.873663 256.189185,385.831012 C256.189185,382.787145 258.655918,380.319244 261.699843,380.319244 C264.743767,380.319244 267.2105,382.787145 267.2105,385.831012 C267.2105,388.873663 264.743767,391.341564 261.699843,391.341564 L261.699843,391.341564 Z" id="Stroke-136" stroke="#221F20" stroke-width="0.5" stroke-linecap="round" stroke-linejoin="round" mask="url(#mask-2)"></path>
                    <path d="M276.855548,391.341564 C279.899472,391.341564 282.366205,388.873663 282.366205,385.831012 C282.366205,382.787145 279.899472,380.319244 276.855548,380.319244 C273.811624,380.319244 271.34489,382.787145 271.34489,385.831012 C271.34489,388.873663 273.811624,391.341564 276.855548,391.341564 L276.855548,391.341564 Z" id="Stroke-137" stroke="#221F20" stroke-width="0.5" stroke-linecap="round" stroke-linejoin="round" mask="url(#mask-2)"></path>
                    <polygon id="Stroke-138" stroke="#221F20" stroke-width="0.5" stroke-linecap="round" stroke-linejoin="round" mask="url(#mask-2)" points="253.777012 445.762977 284.777649 445.762977 284.777649 414.76293 253.777012 414.76293"></polygon>
                    <polygon id="Stroke-139" stroke="#221F20" stroke-width="0.5" stroke-linecap="round" stroke-linejoin="round" stroke-dasharray="1.417,1.417" mask="url(#mask-2)" points="14.3860359 125.431593 289.945637 125.431593 289.945637 119.921041 14.3860359 119.921041"></polygon>
                    <polygon id="Stroke-140" stroke="#221F20" stroke-width="0.5" stroke-linecap="round" stroke-linejoin="round" stroke-dasharray="1.417,1.417" mask="url(#mask-2)" points="245.165319 456.096326 248.610239 456.096326 248.610239 128.876448 245.165319 128.876448"></polygon>
                    <polygon id="Stroke-141" stroke="#221F20" stroke-width="0.5" stroke-linecap="round" stroke-linejoin="round" stroke-dasharray="1.417,1.417" mask="url(#mask-2)" points="248.610239 363.097401 289.944422 363.097401 289.944422 321.764006 248.610239 321.764006"></polygon>
                </g>
            </g>
        </g>
    </g>
</svg>