<?xml version="1.0" encoding="UTF-8" standalone="no"?>
<svg width="305px" height="625px" viewBox="0 0 305 625" version="1.1" xmlns="http://www.w3.org/2000/svg" xmlns:xlink="http://www.w3.org/1999/xlink">
    <!-- Generator: Sketch 39.1 (31720) - http://www.bohemiancoding.com/sketch -->
    <title>plan</title>
    <desc>Created with Sketch.</desc>
    <defs>
        <polygon id="path-1" points="0 624.784466 304.249532 624.784466 304.249532 0.521464078 0 0.521464078"></polygon>
    </defs>
    <g id="Page-1" stroke="none" stroke-width="1" fill="none" fill-rule="evenodd">
        <g id="draft" transform="translate(-77.000000, -30.000000)">
            <g id="plan" transform="translate(77.000000, 29.000000)">
                <polygon id="Stroke-1" stroke="#000000" stroke-width="0.5" stroke-linecap="round" stroke-linejoin="round" points="248.737007 13.9105709 255.637578 13.9105709 255.637578 1.51941748 248.737007 1.51941748"></polygon>
                <polygon id="Fill-3" fill="#000000" points="0.30455506 1.5201468 0.30455506 115.224842 0.30455506 625.174166 186.629686 625.174166 186.629686 611.392442 181.453954 611.392442 181.453954 559.707937 178.693239 559.707937 178.693239 611.392442 173.863205 611.392442 173.863205 559.707937 171.101273 559.707937 171.101273 611.392442 108.993707 611.392442 108.993707 559.707937 106.23421 559.707937 106.23421 611.392442 101.402958 611.392442 101.402958 559.707937 98.6434608 559.707937 98.6434608 611.392442 14.1056952 611.392442 14.1056952 508.024648 38.2582992 508.024648 38.2582992 497.687747 14.1056952 497.687747 14.1056952 129.006566 14.1056952 115.224842 14.1056952 1.5201468"></polygon>
                <polygon id="Stroke-4" stroke="#000000" stroke-width="0.5" stroke-linecap="round" stroke-linejoin="round" points="38.2593947 497.687261 38.2593947 508.024162 14.1067908 508.024162 14.1067908 611.391956 98.6421218 611.391956 98.6421218 559.708666 101.402837 559.708666 101.402837 611.391956 106.232871 611.391956 106.232871 559.708666 108.993586 559.708666 108.993586 611.391956 171.102368 611.391956 171.102368 559.708666 173.863083 559.708666 173.863083 611.391956 178.693117 611.391956 178.693117 559.708666 181.453832 559.708666 181.453832 611.391956 186.629564 611.391956 186.629564 625.174896 0.304433336 625.174896 0.304433336 115.224356 0.304433336 1.51966058 14.1067908 1.51966058 14.1067908 115.224356 14.1067908 129.007296 14.1067908 497.687261"></polygon>
                <polygon id="Fill-6" fill="#000000" points="90.0163484 505.267574 148.674237 505.267574 148.674237 500.443119 90.0163484 500.443119 90.0163484 497.687504 181.453467 497.687504 181.453467 508.024405 90.0163484 508.024405"></polygon>
                <polygon id="Stroke-7" stroke="#000000" stroke-width="0.5" stroke-linecap="round" stroke-linejoin="round" points="90.0163484 505.267574 148.674237 505.267574 148.674237 500.443119 90.0163484 500.443119 90.0163484 497.687504 181.453467 497.687504 181.453467 508.024405 90.0163484 508.024405"></polygon>
                <polygon id="Fill-8" fill="#000000" points="290.143471 1.5201468 290.143471 118.669665 290.143471 129.006566 290.143471 611.392442 248.737616 611.392442 248.737616 625.174166 303.944611 625.174166 303.944611 115.224842 303.944611 1.5201468"></polygon>
                <polygon id="Stroke-9" stroke="#000000" stroke-width="0.5" stroke-linecap="round" stroke-linejoin="round" points="303.944976 1.51966058 303.944976 115.224356 303.944976 625.174896 248.737981 625.174896 248.737981 611.391956 290.142619 611.391956 290.142619 129.007296 290.142619 118.670395 290.142619 1.51966058"></polygon>
                <polygon id="Stroke-11" stroke="#000000" stroke-width="0.5" stroke-linecap="round" stroke-linejoin="round" points="98.6420001 511.469957 108.993464 511.469957 108.993464 508.023918 98.6420001 508.023918"></polygon>
                <polygon id="Stroke-12" stroke="#000000" stroke-width="0.5" stroke-linecap="round" stroke-linejoin="round" points="102.092894 566.599285 105.543787 566.599285 105.543787 511.469957 102.092894 511.469957"></polygon>
                <polygon id="Stroke-13" stroke="#000000" stroke-width="0.5" stroke-linecap="round" stroke-linejoin="round" points="190.080336 614.837751 245.287331 614.837751 245.287331 611.391713 190.080336 611.391713"></polygon>
                <polygon id="Stroke-14" stroke="#000000" stroke-width="0.5" stroke-linecap="round" stroke-linejoin="round" points="174.551923 566.599285 178.002817 566.599285 178.002817 511.469957 174.551923 511.469957"></polygon>
                <polygon id="Stroke-15" stroke="#000000" stroke-width="0.5" stroke-linecap="round" stroke-linejoin="round" points="171.102246 511.469957 181.45371 511.469957 181.45371 508.023918 171.102246 508.023918"></polygon>
                <g id="Group-19" transform="translate(186.238706, 610.892128)" stroke-linecap="round" stroke-width="0.5" stroke="#000000" stroke-linejoin="round">
                    <polygon id="Stroke-16" points="0.390736109 14.2825243 3.84162978 14.2825243 3.84162978 0.499584466 0.390736109 0.499584466"></polygon>
                    <polygon id="Stroke-18" points="59.0474078 14.2825243 62.4983014 14.2825243 62.4983014 0.499584466 59.0474078 0.499584466"></polygon>
                </g>
                <polygon id="Stroke-20" stroke="#000000" stroke-width="0.5" stroke-linecap="round" stroke-linejoin="round" points="41.7101667 504.57788 96.9171619 504.57788 96.9171619 501.131841 41.7101667 501.131841"></polygon>
                <polygon id="Stroke-21" stroke="#000000" stroke-width="0.5" stroke-linecap="round" stroke-linejoin="round" points="108.993464 603.12365 171.102246 603.12365 171.102246 601.056027 108.993464 601.056027"></polygon>
                <polygon id="Stroke-22" stroke="#000000" stroke-width="0.5" stroke-linecap="round" stroke-linejoin="round" points="14.106669 603.12365 98.6432174 603.12365 98.6432174 601.056027 14.106669 601.056027"></polygon>
                <polygon id="Stroke-23" stroke="#000000" stroke-width="0.5" stroke-linecap="round" stroke-linejoin="round" points="38.259273 508.023918 41.7101667 508.023918 41.7101667 497.687017 38.259273 497.687017"></polygon>
                <polygon id="Stroke-24" stroke="#000000" stroke-width="0.5" stroke-linecap="round" stroke-linejoin="round" points="139.013196 458.061825 158.335766 458.061825 158.335766 456.339414 139.013196 456.339414"></polygon>
                <polygon id="Stroke-25" stroke="#000000" stroke-width="0.5" stroke-linecap="round" stroke-linejoin="round" points="14.106669 458.407037 38.259273 458.407037 38.259273 456.339414 14.106669 456.339414"></polygon>
                <polygon id="Stroke-26" stroke="#000000" stroke-width="0.5" stroke-linecap="round" stroke-linejoin="round" points="14.106669 276.824493 38.259273 276.824493 38.259273 274.75687 14.106669 274.75687"></polygon>
                <polygon id="Stroke-27" stroke="#000000" stroke-width="0.5" stroke-linecap="round" stroke-linejoin="round" points="38.2593947 280.269317 19.9714841 280.269317 19.9714841 383.637111 38.2593947 383.637111 38.2593947 387.08315 14.1067908 387.08315 14.1067908 276.823278 38.2593947 276.823278"></polygon>
                <polygon id="Stroke-28" stroke="#000000" stroke-width="0.5" stroke-linecap="round" stroke-linejoin="round" points="248.737007 611.392928 290.142862 611.392928 290.142862 609.325305 248.737007 609.325305"></polygon>
                <polygon id="Stroke-29" stroke="#000000" stroke-width="0.5" stroke-linecap="round" stroke-linejoin="round" points="180.33993 4.9652132 14.106669 4.9652132 14.106669 8.41125204 184.295981 8.41125204 248.737007 8.41125204 248.737007 4.9652132"></polygon>
                <polygon id="Stroke-30" stroke="#000000" stroke-width="0.5" stroke-linecap="round" stroke-linejoin="round" points="248.737007 572.112948 290.142862 572.112948 290.142862 570.045324 248.737007 570.045324"></polygon>
                <path d="M251.497966,559.70818 L288.762748,559.70818" id="Stroke-31" stroke="#000000" stroke-width="0.5" stroke-linecap="round" stroke-linejoin="round"></path>
                <polygon id="Stroke-32" stroke="#000000" stroke-width="0.5" stroke-linecap="round" stroke-linejoin="round" points="250.117365 570.045324 251.497722 570.045324 251.497722 559.708423 250.117365 559.708423"></polygon>
                <polygon id="Stroke-33" stroke="#000000" stroke-width="0.5" stroke-linecap="round" stroke-linejoin="round" points="288.762505 570.045324 290.142862 570.045324 290.142862 559.708423 288.762505 559.708423"></polygon>
                <polygon id="Stroke-34" stroke="#000000" stroke-width="0.5" stroke-linecap="round" stroke-linejoin="round" points="158.335766 458.061825 177.658336 458.061825 177.658336 456.339414 158.335766 456.339414"></polygon>
                <polygon id="Stroke-35" stroke="#000000" stroke-width="0.5" stroke-linecap="round" stroke-linejoin="round" points="61.0327367 458.061825 80.3553068 458.061825 80.3553068 456.339414 61.0327367 456.339414"></polygon>
                <polygon id="Stroke-36" stroke="#000000" stroke-width="0.5" stroke-linecap="round" stroke-linejoin="round" points="41.7101667 458.061825 61.0327367 458.061825 61.0327367 456.339414 41.7101667 456.339414"></polygon>
                <polygon id="Stroke-37" stroke="#000000" stroke-width="0.5" stroke-linecap="round" stroke-linejoin="round" points="83.8049832 459.785452 135.562302 459.785452 135.562302 456.339414 83.8049832 456.339414"></polygon>
                <polygon id="Stroke-38" stroke="#000000" stroke-width="0.5" stroke-linecap="round" stroke-linejoin="round" points="83.8049832 463.231491 135.562302 463.231491 135.562302 459.785452 83.8049832 459.785452"></polygon>
                <polygon id="Stroke-39" stroke="#000000" stroke-width="0.5" stroke-linecap="round" stroke-linejoin="round" points="135.562424 466.676801 135.562424 497.687504 139.013317 497.687504 139.013317 456.3399 135.562424 456.3399 135.562424 463.230762 83.8051049 463.230762 83.8051049 456.3399 80.3554285 456.3399 80.3554285 497.687504 83.8051049 497.687504 83.8051049 466.676801"></polygon>
                <polygon id="Stroke-40" stroke="#000000" stroke-width="0.5" stroke-linecap="round" stroke-linejoin="round" points="248.737007 501.133056 290.142862 501.133056 290.142862 499.065433 248.737007 499.065433"></polygon>
                <polygon id="Stroke-41" stroke="#000000" stroke-width="0.5" stroke-linecap="round" stroke-linejoin="round" points="248.737007 414.303817 290.142862 414.303817 290.142862 412.236194 248.737007 412.236194"></polygon>
                <polygon id="Stroke-42" stroke="#000000" stroke-width="0.5" stroke-linecap="round" stroke-linejoin="round" points="248.737007 457.719045 290.142862 457.719045 290.142862 455.651421 248.737007 455.651421"></polygon>
                <polygon id="Stroke-43" stroke="#000000" stroke-width="0.5" stroke-linecap="round" stroke-linejoin="round" points="248.737007 131.074676 290.142862 131.074676 290.142862 129.007052 248.737007 129.007052"></polygon>
                <polygon id="Stroke-44" stroke="#000000" stroke-width="0.5" stroke-linecap="round" stroke-linejoin="round" points="248.738225 499.065433 250.463063 499.065433 250.463063 457.717829 248.738225 457.717829"></polygon>
                <polygon id="Stroke-45" stroke="#000000" stroke-width="0.5" stroke-linecap="round" stroke-linejoin="round" points="248.737007 70.4316854 290.142862 70.4316854 290.142862 68.3640621 248.737007 68.3640621"></polygon>
                <polygon id="Stroke-46" stroke="#000000" stroke-width="0.5" stroke-linecap="round" stroke-linejoin="round" points="248.738225 41.1446097 250.463063 41.1446097 250.463063 13.9239417 248.738225 13.9239417"></polygon>
                <polygon id="Stroke-47" stroke="#000000" stroke-width="0.5" stroke-linecap="round" stroke-linejoin="round" points="248.738225 68.3652777 250.463063 68.3652777 250.463063 41.1446097 248.738225 41.1446097"></polygon>
                <polygon id="Stroke-48" stroke="#000000" stroke-width="0.5" stroke-linecap="round" stroke-linejoin="round" points="177.658336 497.687017 181.109229 497.687017 181.109229 456.339414 177.658336 456.339414"></polygon>
                <polygon id="Stroke-49" stroke="#000000" stroke-width="0.5" stroke-linecap="round" stroke-linejoin="round" points="14.106669 497.687017 38.259273 497.687017 38.259273 495.619394 14.106669 495.619394"></polygon>
                <polygon id="Stroke-50" stroke="#000000" stroke-width="0.5" stroke-linecap="round" stroke-linejoin="round" points="38.259273 497.687017 41.7101667 497.687017 41.7101667 456.339414 38.259273 456.339414"></polygon>
                <polygon id="Stroke-51" stroke="#000000" stroke-width="0.5" stroke-linecap="round" stroke-linejoin="round" points="286.691969 253.048649 290.142862 253.048649 290.142862 149.680854 286.691969 149.680854"></polygon>
                <polygon id="Stroke-52" stroke="#000000" stroke-width="0.5" stroke-linecap="round" stroke-linejoin="round" points="265.990259 238.577717 286.693186 238.577717 286.693186 160.353243 265.990259 160.353243"></polygon>
                <polygon id="Stroke-53" stroke="#000000" stroke-width="0.5" stroke-linecap="round" stroke-linejoin="round" points="83.8049832 497.687017 135.562302 497.687017 135.562302 466.676315 83.8049832 466.676315"></polygon>
                <polygon id="Stroke-54" stroke="#000000" stroke-width="0.5" stroke-linecap="round" stroke-linejoin="round" points="248.737007 570.045324 290.142862 570.045324 290.142862 501.133056 248.737007 501.133056"></polygon>
                <polygon id="Stroke-55" stroke="#000000" stroke-width="0.5" stroke-linecap="round" stroke-linejoin="round" points="107.268626 238.577717 148.674481 238.577717 148.674481 155.883724 107.268626 155.883724"></polygon>
                <path d="M14.1061821,274.756384 L14.1061821,130.040986" id="Stroke-56" stroke="#000000" stroke-width="0.5" stroke-linecap="round" stroke-linejoin="round"></path>
                <path d="M33.280735,130.040864 L76.2142344,130.040864" id="Stroke-57" stroke="#000000" stroke-width="0.5" stroke-linecap="round" stroke-linejoin="round"></path>
                <polyline id="Stroke-58" stroke="#000000" stroke-width="0.5" stroke-linecap="round" stroke-linejoin="round" points="33.280735 130.040864 31.8699464 130.040864 27.7532189 130.040864 21.0157599 130.040864"></polyline>
                <path d="M21.0071174,274.756384 L21.0071174,130.040986" id="Stroke-59" stroke="#000000" stroke-width="0.5" stroke-linecap="round" stroke-linejoin="round"></path>
                <path d="M21.0071174,130.040864 L14.1065473,130.040864" id="Stroke-60" stroke="#000000" stroke-width="0.5" stroke-linecap="round" stroke-linejoin="round"></path>
                <polyline id="Stroke-61" stroke="#000000" stroke-width="0.5" stroke-linecap="round" stroke-linejoin="round" points="33.2716057 264.419483 31.8608171 264.419483 27.7440896 264.419483 21.0066305 264.419483"></polyline>
                <path d="M33.280735,264.419483 L33.280735,130.040986" id="Stroke-62" stroke="#000000" stroke-width="0.5" stroke-linecap="round" stroke-linejoin="round"></path>
                <path d="M21.0071174,274.756384 L14.1065473,274.756384" id="Stroke-63" stroke="#000000" stroke-width="0.5" stroke-linecap="round" stroke-linejoin="round"></path>
                <path d="M23.3074697,274.756384 L23.3074697,264.419483" id="Stroke-64" stroke="#000000" stroke-width="0.5" stroke-linecap="round" stroke-linejoin="round"></path>
                <path d="M23.3074697,274.756384 L21.006874,274.756384" id="Stroke-65" stroke="#000000" stroke-width="0.5" stroke-linecap="round" stroke-linejoin="round"></path>
                <path d="M76.2144778,264.419483 L33.2712405,264.419483" id="Stroke-66" stroke="#000000" stroke-width="0.5" stroke-linecap="round" stroke-linejoin="round"></path>
                <path d="M76.2144778,274.756384 L23.3080784,274.756384" id="Stroke-67" stroke="#000000" stroke-width="0.5" stroke-linecap="round" stroke-linejoin="round"></path>
                <path d="M76.2144778,274.756384 L76.2144778,264.419483" id="Stroke-68" stroke="#000000" stroke-width="0.5" stroke-linecap="round" stroke-linejoin="round"></path>
                <path d="M76.2144778,130.040864 L76.2144778,264.419361" id="Stroke-69" stroke="#000000" stroke-width="0.5" stroke-linecap="round" stroke-linejoin="round"></path>
                <path d="M181.453588,559.70818 L181.453588,511.469714" id="Stroke-70" stroke="#000000" stroke-width="0.5" stroke-linecap="round" stroke-linejoin="round"></path>
                <path d="M90.0163484,497.687261 L41.7099232,497.687261" id="Stroke-71" stroke="#000000" stroke-width="0.5" stroke-linecap="round" stroke-linejoin="round"></path>
                <path d="M38.2593947,495.61988 L38.2593947,458.407523" id="Stroke-72" stroke="#000000" stroke-width="0.5" stroke-linecap="round" stroke-linejoin="round"></path>
                <polygon id="Stroke-73" stroke="#000000" stroke-width="0.5" stroke-linecap="round" stroke-linejoin="round" points="41.7101667 497.687017 80.3553068 497.687017 80.3553068 458.063041 41.7101667 458.063041"></polygon>
                <polygon id="Stroke-74" stroke="#000000" stroke-width="0.5" stroke-linecap="round" stroke-linejoin="round" points="139.013196 497.687017 177.658336 497.687017 177.658336 458.063041 139.013196 458.063041"></polygon>
                <g id="Group-179" transform="translate(0.000000, 0.694070)">
                    <path d="M152.124644,567.28351 C152.124644,561.119537 147.183841,557.083964 141.651456,555.91462 C136.352782,554.795113 129.964673,556.406911 126.594117,561.019863 C123.919827,564.682267 124.521146,568.337377 124.521146,572.278139 L124.521146,577.314096 L124.521146,594.051999 L124.521146,598.235867 L124.521146,600.329016 C124.521146,600.655995 124.847368,600.361836 125.011697,600.361836 L125.53633,600.361836 L126.583162,600.361836 L134.963904,600.361836 L151.725387,600.361836 C151.877543,600.361836 152.124644,600.502838 152.124644,600.236636 L152.124644,599.713956 L152.124644,598.667381 L152.124644,596.575447 L152.124644,592.390364 L152.124644,584.021412 L152.124644,567.28351 L152.124644,567.28351 Z" id="Stroke-75" stroke="#000000" stroke-width="0.5" stroke-linecap="round" stroke-linejoin="round"></path>
                    <polygon id="Stroke-77" stroke="#000000" stroke-width="0.5" stroke-linecap="round" stroke-linejoin="round" points="190.46316 11.1623701 248.737616 11.1623701 248.737616 0.825469126 14.1060604 0.825469126 14.1060604 11.1623701 176.800786 11.1623701"></polygon>
                    <mask id="mask-2" fill="white">
                        <use xlink:href="#path-1"></use>
                    </mask>
                    <g id="Clip-80"></g>
                    <polygon id="Stroke-79" stroke="#000000" stroke-width="0.5" stroke-linecap="round" stroke-linejoin="round" mask="url(#mask-2)" points="248.737007 608.630019 290.142862 608.630019 290.142862 571.417662 248.737007 571.417662"></polygon>
                    <polygon id="Stroke-81" stroke="#000000" stroke-width="0.5" stroke-linecap="round" stroke-linejoin="round" mask="url(#mask-2)" points="38.2604902 496.992948 181.109229 496.992948 181.109229 455.645344 38.2604902 455.645344"></polygon>
                    <polyline id="Stroke-82" stroke="#000000" stroke-width="0.5" stroke-linecap="round" stroke-linejoin="round" mask="url(#mask-2)" points="38.2593947 279.575247 161.785564 279.575247 161.785564 382.943041 38.2593947 382.943041"></polyline>
                    <path d="M286.465683,413.609383 L286.465683,454.956987" id="Stroke-83" stroke="#000000" stroke-width="0.5" stroke-linecap="round" stroke-linejoin="round" mask="url(#mask-2)"></path>
                    <path d="M248.737616,454.309107 L248.737616,453.764548" id="Stroke-84" stroke="#000000" stroke-width="0.5" stroke-linecap="round" stroke-linejoin="round" mask="url(#mask-2)"></path>
                    <path d="M250.35911,454.309107 L250.35911,453.764548" id="Stroke-85" stroke="#000000" stroke-width="0.5" stroke-linecap="round" stroke-linejoin="round" mask="url(#mask-2)"></path>
                    <path d="M251.007659,454.309107 L248.737494,454.309107" id="Stroke-86" stroke="#000000" stroke-width="0.5" stroke-linecap="round" stroke-linejoin="round" mask="url(#mask-2)"></path>
                    <path d="M248.737616,418.143082 L250.358988,418.143082" id="Stroke-87" stroke="#000000" stroke-width="0.5" stroke-linecap="round" stroke-linejoin="round" mask="url(#mask-2)"></path>
                    <path d="M250.35911,418.143082 L250.35911,414.904899" id="Stroke-88" stroke="#000000" stroke-width="0.5" stroke-linecap="round" stroke-linejoin="round" mask="url(#mask-2)"></path>
                    <path d="M250.35911,414.904777 L248.737738,414.904777" id="Stroke-89" stroke="#000000" stroke-width="0.5" stroke-linecap="round" stroke-linejoin="round" mask="url(#mask-2)"></path>
                    <path d="M248.737616,414.904777 L248.737616,418.14296" id="Stroke-90" stroke="#000000" stroke-width="0.5" stroke-linecap="round" stroke-linejoin="round" mask="url(#mask-2)"></path>
                    <path d="M248.737616,450.526609 L250.358988,450.526609" id="Stroke-91" stroke="#000000" stroke-width="0.5" stroke-linecap="round" stroke-linejoin="round" mask="url(#mask-2)"></path>
                    <path d="M250.35911,450.526609 L250.35911,453.764791" id="Stroke-92" stroke="#000000" stroke-width="0.5" stroke-linecap="round" stroke-linejoin="round" mask="url(#mask-2)"></path>
                    <path d="M250.35911,453.765034 L248.737738,453.765034" id="Stroke-93" stroke="#000000" stroke-width="0.5" stroke-linecap="round" stroke-linejoin="round" mask="url(#mask-2)"></path>
                    <path d="M248.737616,453.765034 L248.737616,450.526852" id="Stroke-94" stroke="#000000" stroke-width="0.5" stroke-linecap="round" stroke-linejoin="round" mask="url(#mask-2)"></path>
                    <path d="M248.737616,414.257141 L251.007781,414.257141" id="Stroke-95" stroke="#000000" stroke-width="0.5" stroke-linecap="round" stroke-linejoin="round" mask="url(#mask-2)"></path>
                    <path d="M248.737616,414.904777 L248.737616,414.256898" id="Stroke-96" stroke="#000000" stroke-width="0.5" stroke-linecap="round" stroke-linejoin="round" mask="url(#mask-2)"></path>
                    <path d="M250.35911,414.904777 L250.35911,414.256898" id="Stroke-97" stroke="#000000" stroke-width="0.5" stroke-linecap="round" stroke-linejoin="round" mask="url(#mask-2)"></path>
                    <path d="M251.007659,454.956744 L251.007659,413.60914" id="Stroke-98" stroke="#000000" stroke-width="0.5" stroke-linecap="round" stroke-linejoin="round" mask="url(#mask-2)"></path>
                    <path d="M251.007659,413.609383 L286.466048,413.609383" id="Stroke-99" stroke="#000000" stroke-width="0.5" stroke-linecap="round" stroke-linejoin="round" mask="url(#mask-2)"></path>
                    <path d="M286.465683,454.956744 L251.007294,454.956744" id="Stroke-100" stroke="#000000" stroke-width="0.5" stroke-linecap="round" stroke-linejoin="round" mask="url(#mask-2)"></path>
                    <path d="M38.2593947,455.64583 L38.2593947,386.389566" id="Stroke-101" stroke="#000000" stroke-width="0.5" stroke-linecap="round" stroke-linejoin="round" mask="url(#mask-2)"></path>
                    <polygon id="Stroke-102" stroke="#000000" stroke-width="0.5" stroke-linecap="round" stroke-linejoin="round" mask="url(#mask-2)" points="248.737007 498.371363 290.142862 498.371363 290.142862 457.023759 248.737007 457.023759"></polygon>
                    <polygon id="Stroke-103" stroke="#000000" stroke-width="0.5" stroke-linecap="round" stroke-linejoin="round" mask="url(#mask-2)" points="248.737007 411.542124 290.142862 411.542124 290.142862 273.028381 248.737007 273.028381"></polygon>
                    <polygon id="Stroke-104" stroke="#000000" stroke-width="0.5" stroke-linecap="round" stroke-linejoin="round" mask="url(#mask-2)" points="253.912739 403.862381 284.967131 403.862381 284.967131 372.851678 253.912739 372.851678"></polygon>
                    <polygon id="Stroke-105" stroke="#000000" stroke-width="0.5" stroke-linecap="round" stroke-linejoin="round" mask="url(#mask-2)" points="250.807544 545.231414 281.861935 545.231414 281.861935 514.220711 250.807544 514.220711"></polygon>
                    <polygon id="Stroke-106" stroke="#000000" stroke-width="0.5" stroke-linecap="round" stroke-linejoin="round" mask="url(#mask-2)" points="252.187901 543.852998 274.961365 543.852998 274.961365 515.599126 252.187901 515.599126"></polygon>
                    <path d="M266.080456,528.047653 C265.151697,528.713765 264.939897,530.005878 265.606948,530.93333 C266.275216,531.859567 267.567932,532.07107 268.496691,531.404958 C269.42545,530.738845 269.637251,529.446732 268.9702,528.520496 C268.303148,527.593043 267.009216,527.38154 266.080456,528.047653 L266.080456,528.047653 Z" id="Stroke-107" stroke="#000000" stroke-width="0.5" stroke-linecap="round" stroke-linejoin="round" mask="url(#mask-2)"></path>
                    <path d="M276.66977,386.678012 C275.741011,387.344125 275.52921,388.636237 276.196261,389.56369 C276.86453,390.489927 278.157245,390.70143 279.086004,390.035317 C280.014763,389.369204 280.226564,388.077092 279.559513,387.150855 C278.892462,386.223402 277.598529,386.011899 276.66977,386.678012 L276.66977,386.678012 Z" id="Stroke-108" stroke="#000000" stroke-width="0.5" stroke-linecap="round" stroke-linejoin="round" mask="url(#mask-2)"></path>
                    <path d="M276.341357,292.668614 C279.390559,292.668614 281.86157,290.199864 281.86157,287.154952 C281.86157,284.111255 279.390559,281.642505 276.341357,281.642505 C273.292155,281.642505 270.821144,284.111255 270.821144,287.154952 C270.821144,290.199864 273.292155,292.668614 276.341357,292.668614 L276.341357,292.668614 Z" id="Stroke-109" stroke="#000000" stroke-width="0.5" stroke-linecap="round" stroke-linejoin="round" mask="url(#mask-2)"></path>
                    <path d="M261.159251,292.668614 C258.110048,292.668614 255.639038,290.199864 255.639038,287.154952 C255.639038,284.111255 258.110048,281.642505 261.159251,281.642505 C264.208453,281.642505 266.680681,284.111255 266.680681,287.154952 C266.680681,290.199864 264.208453,292.668614 261.159251,292.668614 L261.159251,292.668614 Z" id="Stroke-110" stroke="#000000" stroke-width="0.5" stroke-linecap="round" stroke-linejoin="round" mask="url(#mask-2)"></path>
                    <polygon id="Stroke-111" stroke="#000000" stroke-width="0.5" stroke-linecap="round" stroke-linejoin="round" mask="url(#mask-2)" points="252.187901 295.424594 285.312829 295.424594 285.312829 278.886039 252.187901 278.886039"></polygon>
                    <path d="M281.862057,305.451169 L255.638916,305.451169 C253.732709,305.451169 252.188023,306.993682 252.188023,308.897208 L252.188023,337.461041 C252.188023,339.364567 253.732709,340.90708 255.638916,340.90708 L281.862057,340.90708 C283.768265,340.90708 285.31295,339.364567 285.31295,337.461041 L285.31295,308.897208 C285.31295,306.993682 283.768265,305.451169 281.862057,305.451169 L281.862057,305.451169 Z" id="Stroke-112" stroke="#000000" stroke-width="0.5" stroke-linecap="round" stroke-linejoin="round" mask="url(#mask-2)"></path>
                    <path d="M21.0071174,196.536164 L33.2806133,196.536164" id="Stroke-113" stroke="#000000" stroke-width="0.5" stroke-linecap="round" stroke-linejoin="round" mask="url(#mask-2)"></path>
                    <path d="M72.8692411,111.784881 L72.7633407,77.3293546" id="Stroke-114" stroke="#000000" stroke-width="0.5" stroke-linecap="round" stroke-linejoin="round" mask="url(#mask-2)"></path>
                    <path d="M31.9658654,111.909716 L27.849138,111.921871" id="Stroke-115" stroke="#000000" stroke-width="0.5" stroke-linecap="round" stroke-linejoin="round" mask="url(#mask-2)"></path>
                    <path d="M31.8603302,77.4538252 L27.7436027,77.4659806" id="Stroke-116" stroke="#000000" stroke-width="0.5" stroke-linecap="round" stroke-linejoin="round" mask="url(#mask-2)"></path>
                    <path d="M36.3169128,111.896345 L31.9652568,111.909716" id="Stroke-117" stroke="#000000" stroke-width="0.5" stroke-linecap="round" stroke-linejoin="round" mask="url(#mask-2)"></path>
                    <path d="M36.2114993,77.4404544 L31.8598433,77.4538252" id="Stroke-118" stroke="#000000" stroke-width="0.5" stroke-linecap="round" stroke-linejoin="round" mask="url(#mask-2)"></path>
                    <path d="M36.2114993,77.4404544 L36.3173997,111.895981" id="Stroke-119" stroke="#000000" stroke-width="0.5" stroke-linecap="round" stroke-linejoin="round" mask="url(#mask-2)"></path>
                    <path d="M27.8490162,111.922236 L21.1127744,111.9429" id="Stroke-120" stroke="#000000" stroke-width="0.5" stroke-linecap="round" stroke-linejoin="round" mask="url(#mask-2)"></path>
                    <path d="M27.7436027,77.4663452 L21.0073609,77.4870093" id="Stroke-121" stroke="#000000" stroke-width="0.5" stroke-linecap="round" stroke-linejoin="round" mask="url(#mask-2)"></path>
                    <path d="M72.7638276,77.3289899 L69.3129339,77.3399297" id="Stroke-122" stroke="#000000" stroke-width="0.5" stroke-linecap="round" stroke-linejoin="round" mask="url(#mask-2)"></path>
                    <path d="M69.4187126,111.795456 L72.8696063,111.784516" id="Stroke-123" stroke="#000000" stroke-width="0.5" stroke-linecap="round" stroke-linejoin="round" mask="url(#mask-2)"></path>
                    <path d="M36.3169128,111.896345 L69.4187126,111.795456" id="Stroke-124" stroke="#000000" stroke-width="0.5" stroke-linecap="round" stroke-linejoin="round" mask="url(#mask-2)"></path>
                    <path d="M69.3132991,77.339565 L36.2114993,77.4404544" id="Stroke-125" stroke="#000000" stroke-width="0.5" stroke-linecap="round" stroke-linejoin="round" mask="url(#mask-2)"></path>
                    <path d="M21.1124092,111.942779 L21.0065088,77.4872524" id="Stroke-126" stroke="#000000" stroke-width="0.5" stroke-linecap="round" stroke-linejoin="round" mask="url(#mask-2)"></path>
                    <path d="M14.2115957,111.963807 L21.1121658,111.943143" id="Stroke-127" stroke="#000000" stroke-width="0.5" stroke-linecap="round" stroke-linejoin="round" mask="url(#mask-2)"></path>
                    <path d="M14.2115957,111.963807 L14.1056952,77.5082812" id="Stroke-128" stroke="#000000" stroke-width="0.5" stroke-linecap="round" stroke-linejoin="round" mask="url(#mask-2)"></path>
                    <path d="M21.0071174,77.4868878 L14.1065473,77.5075518" id="Stroke-129" stroke="#000000" stroke-width="0.5" stroke-linecap="round" stroke-linejoin="round" mask="url(#mask-2)"></path>
                    <path d="M248.737616,0.82559068 L303.944611,0.82559068" id="Stroke-130" stroke="#000000" stroke-width="0.5" stroke-linecap="round" stroke-linejoin="round" mask="url(#mask-2)"></path>
                    <path d="M47.2558197,325.427498 L54.5057396,325.427498" id="Stroke-131" stroke="#000000" stroke-width="0.5" stroke-linecap="round" stroke-linejoin="round" mask="url(#mask-2)"></path>
                    <path d="M54.5054961,325.427498 L54.5054961,290.971972" id="Stroke-132" stroke="#000000" stroke-width="0.5" stroke-linecap="round" stroke-linejoin="round" mask="url(#mask-2)"></path>
                    <path d="M255.638551,13.2161363 L290.143836,13.2161363" id="Stroke-133" stroke="#000000" stroke-width="0.5" stroke-linecap="round" stroke-linejoin="round" mask="url(#mask-2)"></path>
                    <polyline id="Stroke-134" stroke="#000000" stroke-width="0.5" stroke-linecap="round" stroke-linejoin="round" mask="url(#mask-2)" points="54.5054961 290.971364 30.3528922 290.971364 30.3528922 325.42689 47.2555763 325.42689"></polyline>
                    <path d="M150.736253,567.043806 C150.736253,563.891927 149.65899,561.893589 147.235452,559.945088 C145.997512,558.949565 144.665845,558.268866 143.172283,557.754696 C139.098159,556.353185 134.506706,556.779837 130.790452,558.988463 C126.188044,561.722198 125.89347,565.308024 125.89347,569.980536 L125.89347,582.797127 L125.89347,586.001274 L125.89347,587.603348 C125.89347,587.840377 125.781483,588.150338 126.147875,588.150338 L126.95004,588.150338 L133.367363,588.150338 L146.20201,588.150338 L149.410671,588.150338 C149.708897,588.150338 150.736253,588.428696 150.736253,587.870765 L150.736253,586.268692 L150.736253,579.860397 L150.736253,567.043806 L150.736253,567.043806 Z" id="Stroke-135" stroke="#000000" stroke-width="0.5" stroke-linecap="round" stroke-linejoin="round" mask="url(#mask-2)"></path>
                    <polyline id="Stroke-136" stroke="#000000" stroke-width="0.5" stroke-linecap="round" stroke-linejoin="round" mask="url(#mask-2)" points="53.5970651 337.091276 30.352527 337.091276 30.352527 371.546802 54.5051309 371.546802 54.5051309 337.091276 53.5970651 337.091276"></polyline>
                    <polyline id="Stroke-137" stroke="#000000" stroke-width="0.5" stroke-linecap="round" stroke-linejoin="round" mask="url(#mask-2)" points="67.0167202 279.575247 67.0167202 300.888419 67.0167202 382.943041"></polyline>
                    <path d="M279.791764,164.659637 L279.791764,232.882697" id="Stroke-138" stroke="#000000" stroke-width="0.5" stroke-linecap="round" stroke-linejoin="round" mask="url(#mask-2)"></path>
                    <path d="M286.692699,211.56296 L286.692699,185.979616" id="Stroke-139" stroke="#000000" stroke-width="0.5" stroke-linecap="round" stroke-linejoin="round" mask="url(#mask-2)"></path>
                    <path d="M286.692699,185.979252 L283.241805,173.186972" id="Stroke-140" stroke="#000000" stroke-width="0.5" stroke-linecap="round" stroke-linejoin="round" mask="url(#mask-2)"></path>
                    <path d="M283.242292,173.187458 L283.242292,224.355361" id="Stroke-141" stroke="#000000" stroke-width="0.5" stroke-linecap="round" stroke-linejoin="round" mask="url(#mask-2)"></path>
                    <path d="M283.242292,232.882575 L283.242292,164.659515" id="Stroke-142" stroke="#000000" stroke-width="0.5" stroke-linecap="round" stroke-linejoin="round" mask="url(#mask-2)"></path>
                    <path d="M283.242292,224.354753 L286.693186,211.562474" id="Stroke-143" stroke="#000000" stroke-width="0.5" stroke-linecap="round" stroke-linejoin="round" mask="url(#mask-2)"></path>
                    <path d="M283.242292,164.659637 L279.791399,164.659637" id="Stroke-144" stroke="#000000" stroke-width="0.5" stroke-linecap="round" stroke-linejoin="round" mask="url(#mask-2)"></path>
                    <path d="M279.791764,232.882575 L283.242658,232.882575" id="Stroke-145" stroke="#000000" stroke-width="0.5" stroke-linecap="round" stroke-linejoin="round" mask="url(#mask-2)"></path>
                    <path d="M72.7590803,77.1501849 L72.6531799,42.6946586" id="Stroke-146" stroke="#000000" stroke-width="0.5" stroke-linecap="round" stroke-linejoin="round" mask="url(#mask-2)"></path>
                    <path d="M31.8557046,77.2750202 L27.7389771,77.2871755" id="Stroke-147" stroke="#000000" stroke-width="0.5" stroke-linecap="round" stroke-linejoin="round" mask="url(#mask-2)"></path>
                    <path d="M31.7502911,42.8190078 L27.6335636,42.8311631" id="Stroke-148" stroke="#000000" stroke-width="0.5" stroke-linecap="round" stroke-linejoin="round" mask="url(#mask-2)"></path>
                    <path d="M36.2068738,77.2616493 L31.8552177,77.2750202" id="Stroke-149" stroke="#000000" stroke-width="0.5" stroke-linecap="round" stroke-linejoin="round" mask="url(#mask-2)"></path>
                    <path d="M36.1014602,42.8057584 L31.7498042,42.8191293" id="Stroke-150" stroke="#000000" stroke-width="0.5" stroke-linecap="round" stroke-linejoin="round" mask="url(#mask-2)"></path>
                    <path d="M36.1014602,42.8057584 L36.2073607,77.2612847" id="Stroke-151" stroke="#000000" stroke-width="0.5" stroke-linecap="round" stroke-linejoin="round" mask="url(#mask-2)"></path>
                    <path d="M27.7389771,77.2874186 L21.0027353,77.3080827" id="Stroke-152" stroke="#000000" stroke-width="0.5" stroke-linecap="round" stroke-linejoin="round" mask="url(#mask-2)"></path>
                    <path d="M27.6335636,42.8315278 L20.8973218,42.8521918" id="Stroke-153" stroke="#000000" stroke-width="0.5" stroke-linecap="round" stroke-linejoin="round" mask="url(#mask-2)"></path>
                    <path d="M72.6536668,42.694294 L69.2027731,42.7052338" id="Stroke-154" stroke="#000000" stroke-width="0.5" stroke-linecap="round" stroke-linejoin="round" mask="url(#mask-2)"></path>
                    <path d="M69.3086736,77.1606384 L72.7595672,77.1496986" id="Stroke-155" stroke="#000000" stroke-width="0.5" stroke-linecap="round" stroke-linejoin="round" mask="url(#mask-2)"></path>
                    <path d="M36.2068738,77.2616493 L69.3086736,77.16076" id="Stroke-156" stroke="#000000" stroke-width="0.5" stroke-linecap="round" stroke-linejoin="round" mask="url(#mask-2)"></path>
                    <path d="M69.20326,42.7048691 L36.1014602,42.8057584" id="Stroke-157" stroke="#000000" stroke-width="0.5" stroke-linecap="round" stroke-linejoin="round" mask="url(#mask-2)"></path>
                    <path d="M21.0023702,77.3080827 L20.8964697,42.8525565" id="Stroke-158" stroke="#000000" stroke-width="0.5" stroke-linecap="round" stroke-linejoin="round" mask="url(#mask-2)"></path>
                    <path d="M14.1014349,77.3289899 L21.002005,77.3083258" id="Stroke-159" stroke="#000000" stroke-width="0.5" stroke-linecap="round" stroke-linejoin="round" mask="url(#mask-2)"></path>
                    <path d="M14.1014349,77.3289899 L13.9955344,42.8734637" id="Stroke-160" stroke="#000000" stroke-width="0.5" stroke-linecap="round" stroke-linejoin="round" mask="url(#mask-2)"></path>
                    <path d="M20.8969566,42.8520703 L13.9963865,42.8727344" id="Stroke-161" stroke="#000000" stroke-width="0.5" stroke-linecap="round" stroke-linejoin="round" mask="url(#mask-2)"></path>
                    <polygon id="Stroke-162" stroke="#231F1F" stroke-width="0.5" stroke-linecap="round" stroke-linejoin="round" mask="url(#mask-2)" points="235.041768 124.868159 290.248763 124.868159 290.248763 119.355713 235.041768 119.355713"></polygon>
                    <polygon id="Stroke-163" stroke="#231F1F" stroke-width="0.75" stroke-linecap="round" stroke-linejoin="round" mask="url(#mask-2)" points="235.04055 124.868159 239.641742 124.868159 239.641742 119.355713 235.04055 119.355713"></polygon>
                    <polygon id="Stroke-164" stroke="#231F1F" stroke-width="0.75" stroke-linecap="round" stroke-linejoin="round" mask="url(#mask-2)" points="285.647571 124.868159 290.248763 124.868159 290.248763 119.355713 285.647571 119.355713"></polygon>
                    <polygon id="Stroke-165" stroke="#231F1F" stroke-width="0.75" stroke-linecap="round" stroke-linejoin="round" mask="url(#mask-2)" points="230.440576 124.868159 235.041768 124.868159 235.041768 119.355713 230.440576 119.355713"></polygon>
                    <polygon id="Stroke-166" stroke="#231F1F" stroke-width="0.5" stroke-linecap="round" stroke-linejoin="round" mask="url(#mask-2)" points="179.833555 124.868159 184.434747 124.868159 184.434747 119.355713 179.833555 119.355713"></polygon>
                    <polygon id="Stroke-167" stroke="#231F1F" stroke-width="0.5" stroke-linecap="round" stroke-linejoin="round" mask="url(#mask-2)" points="179.834772 124.868159 235.041768 124.868159 235.041768 119.355713 179.834772 119.355713"></polygon>
                    <polygon id="Stroke-168" stroke="#231F1F" stroke-width="0.5" stroke-linecap="round" stroke-linejoin="round" mask="url(#mask-2)" points="175.233581 124.868159 179.833555 124.868159 179.833555 119.355713 175.233581 119.355713"></polygon>
                    <polygon id="Stroke-169" stroke="#231F1F" stroke-width="0.5" stroke-linecap="round" stroke-linejoin="round" mask="url(#mask-2)" points="124.62656 124.868159 129.226534 124.868159 129.226534 119.355713 124.62656 119.355713"></polygon>
                    <polygon id="Stroke-170" stroke="#231F1F" stroke-width="0.5" stroke-linecap="round" stroke-linejoin="round" mask="url(#mask-2)" points="124.62656 124.868159 179.833555 124.868159 179.833555 119.355713 124.62656 119.355713"></polygon>
                    <polygon id="Stroke-171" stroke="#231F1F" stroke-width="0.5" stroke-linecap="round" stroke-linejoin="round" mask="url(#mask-2)" points="120.026586 124.868159 124.62656 124.868159 124.62656 119.355713 120.026586 119.355713"></polygon>
                    <polygon id="Stroke-172" stroke="#231F1F" stroke-width="0.5" stroke-linecap="round" stroke-linejoin="round" mask="url(#mask-2)" points="69.4195647 124.868159 74.019539 124.868159 74.019539 119.355713 69.4195647 119.355713"></polygon>
                    <polygon id="Stroke-173" stroke="#231F1F" stroke-width="0.5" stroke-linecap="round" stroke-linejoin="round" mask="url(#mask-2)" points="69.4195647 124.868159 124.62656 124.868159 124.62656 119.355713 69.4195647 119.355713"></polygon>
                    <polygon id="Stroke-174" stroke="#231F1F" stroke-width="0.5" stroke-linecap="round" stroke-linejoin="round" mask="url(#mask-2)" points="64.8183732 124.868159 69.4195647 124.868159 69.4195647 119.355713 64.8183732 119.355713"></polygon>
                    <polygon id="Stroke-175" stroke="#231F1F" stroke-width="0.5" stroke-linecap="round" stroke-linejoin="round" mask="url(#mask-2)" points="14.2113522 124.868159 18.8125438 124.868159 18.8125438 119.355713 14.2113522 119.355713"></polygon>
                    <polygon id="Stroke-176" stroke="#231F1F" stroke-width="0.5" stroke-linecap="round" stroke-linejoin="round" mask="url(#mask-2)" points="14.2125695 124.868159 69.4195647 124.868159 69.4195647 119.355713 14.2125695 119.355713"></polygon>
                    <polygon id="Stroke-177" stroke="#231F1F" stroke-width="0.5" stroke-linecap="round" stroke-linejoin="round" mask="url(#mask-2)" points="248.842908 128.314198 290.248763 128.314198 290.248763 124.868159 248.842908 124.868159"></polygon>
                    <polygon id="Stroke-178" stroke="#231F1F" stroke-width="0.5" stroke-linecap="round" stroke-linejoin="round" stroke-dasharray="1.417,1.417" mask="url(#mask-2)" points="14.2113522 124.866944 290.248763 124.866944 290.248763 119.354497 14.2113522 119.354497"></polygon>
                </g>
            </g>
        </g>
    </g>
</svg>