<?xml version="1.0" encoding="UTF-8" standalone="no"?>
<svg width="119px" height="110px" viewBox="0 0 119 110" version="1.1" xmlns="http://www.w3.org/2000/svg" xmlns:xlink="http://www.w3.org/1999/xlink">
    <!-- Generator: Sketch 39.1 (31720) - http://www.bohemiancoding.com/sketch -->
    <title>Group 3</title>
    <desc>Created with Sketch.</desc>
    <defs>
        <filter x="-50%" y="-50%" width="200%" height="200%" filterUnits="objectBoundingBox" id="filter-1">
            <feMorphology radius="2.5" operator="dilate" in="SourceAlpha" result="shadowSpreadOuter1"></feMorphology>
            <feOffset dx="0" dy="3" in="shadowSpreadOuter1" result="shadowOffsetOuter1"></feOffset>
            <feGaussianBlur stdDeviation="1.5" in="shadowOffsetOuter1" result="shadowBlurOuter1"></feGaussianBlur>
            <feComposite in="shadowBlurOuter1" in2="SourceAlpha" operator="out" result="shadowBlurOuter1"></feComposite>
            <feColorMatrix values="0 0 0 0 0.587372449   0 0 0 0 0.587372449   0 0 0 0 0.587372449  0 0 0 0.503198596 0" type="matrix" in="shadowBlurOuter1" result="shadowMatrixOuter1"></feColorMatrix>
            <feMerge>
                <feMergeNode in="shadowMatrixOuter1"></feMergeNode>
                <feMergeNode in="SourceGraphic"></feMergeNode>
            </feMerge>
        </filter>
        <path d="M0,9.99677052 C0,4.47570661 4.48192418,0 9.99409705,0 L92.7746026,0 C98.29419,0 102.7687,4.48558331 102.7687,9.99677052 L102.7687,83.0032295 C102.7687,88.5242934 98.2867755,93 92.7746026,93 L9.99409705,93 C4.47450966,93 0,88.5144167 0,83.0032295 L0,9.99677052 Z" id="path-2"></path>
        <filter x="-50%" y="-50%" width="200%" height="200%" filterUnits="objectBoundingBox" id="filter-3">
            <feMorphology radius="2.5" operator="dilate" in="SourceAlpha" result="shadowSpreadOuter1"></feMorphology>
            <feOffset dx="0" dy="3" in="shadowSpreadOuter1" result="shadowOffsetOuter1"></feOffset>
            <feGaussianBlur stdDeviation="1.5" in="shadowOffsetOuter1" result="shadowBlurOuter1"></feGaussianBlur>
            <feComposite in="shadowBlurOuter1" in2="SourceAlpha" operator="out" result="shadowBlurOuter1"></feComposite>
            <feColorMatrix values="0 0 0 0 0.587372449   0 0 0 0 0.587372449   0 0 0 0 0.587372449  0 0 0 0.503198596 0" type="matrix" in="shadowBlurOuter1"></feColorMatrix>
        </filter>
        <mask id="mask-4" maskContentUnits="userSpaceOnUse" maskUnits="objectBoundingBox" x="-2" y="-2" width="106.7687" height="97">
            <rect x="-2" y="-2" width="106.7687" height="97" fill="white"></rect>
            <use xlink:href="#path-2" fill="black"></use>
        </mask>
    </defs>
    <g id="Page-1" stroke="none" stroke-width="1" fill="none" fill-rule="evenodd">
        <g id="home_appliance_selected" transform="translate(-1003.000000, -848.000000)">
            <g id="Side-Buttons" transform="translate(741.000000, 851.000000)">
                <g id="Group-3" filter="url(#filter-1)" transform="translate(270.000000, 0.000000)">
                    <g id="Rectangle-14">
                        <use fill="black" fill-opacity="1" filter="url(#filter-3)" xlink:href="#path-2"></use>
                        <use fill="#FFFFFF" fill-rule="evenodd" xlink:href="#path-2"></use>
                        <use stroke="#009B63" mask="url(#mask-4)" stroke-width="4" xlink:href="#path-2"></use>
                    </g>
                    <g id="customer_support" transform="translate(24.000000, 21.000000)" stroke="#FFFFFF" fill="#009B63">
                        <path d="M53.092131,48.9124629 C52.9850428,48.4355106 50.3917893,37.2146159 43.6201122,34.9207654 C39.8369896,33.6387915 36.5529509,33.0063686 34.4997658,32.7020151 C36.0981565,29.8811455 38.1182898,25.3053025 38.3688234,21.7999669 C38.6305945,18.161559 37.8915536,12.7503907 36.2422629,10.3531127 C33.1763669,5.90046033 27.1424087,5.84907597 26.8846037,5.84907597 C26.6287819,5.84907597 20.5928405,5.90046033 17.5282666,10.3531127 C15.880298,12.7477556 15.1412571,18.1595827 15.4010451,21.7999669 C15.5656437,24.0885472 16.483826,26.8316814 17.5454536,29.2467463 C15.3944347,29.1828453 13.6631753,27.4239191 13.6631753,25.2651173 L13.6631753,21.3645174 L13.6631753,20.1912412 L13.6631753,17.063383 L13.6631753,16.5640324 C13.6631753,9.29907456 19.5946726,3.38789692 26.8852648,3.38789692 C34.1745349,3.38789692 40.1060322,9.29907456 40.1060322,16.5640324 L40.1060322,17.0627242 L40.1060322,21.3638586 L40.1060322,25.6643342 C40.1060322,26.3916205 40.6983226,26.9818819 41.4281089,26.9818819 C44.5363114,26.9818819 47.0654442,24.4614132 47.0654442,21.3638586 C47.0654442,18.7142702 45.2132147,16.4922261 42.7329987,15.9032823 C42.3839704,7.4900816 35.4106766,0.752801575 26.8839427,0.752801575 C18.3572087,0.752801575 11.384576,7.49074038 11.0348867,15.903941 C8.55467072,16.4935436 6.7024412,18.714929 6.7024412,21.3645174 C6.7024412,24.0813007 8.64787713,26.3534116 11.2239437,26.8712079 C11.9471196,29.7474144 14.5555771,31.8871119 17.6631184,31.8871119 L18.8225797,31.8871119 C18.9739575,32.1723609 19.1226912,32.4437758 19.2694417,32.7013563 C17.2162565,33.0057098 13.9322179,33.6381327 10.1504173,34.9201066 C3.37675715,37.2139571 0.784825696,48.4355106 0.67773748,48.9118041 C0.519088271,49.6213035 0.967272287,50.3255328 1.67921061,50.484956 C1.77638325,50.5066956 1.87355589,50.517236 1.96940646,50.517236 C2.57425657,50.517236 3.11961322,50.1008909 3.25777024,49.4882312 C3.90096058,46.6423283 6.54511407,38.9247928 11.0018348,37.4155419 C15.691241,35.8259206 19.6416063,35.283091 21.0886193,35.1249853 C22.5382764,36.3878547 24.3462164,36.8694184 25.563188,37.0492636 L25.563188,49.1996883 C25.563188,49.9269746 26.1554784,50.517236 26.8852648,50.517236 C27.6150511,50.517236 28.2073415,49.9269746 28.2073415,49.1996883 L28.2073415,37.0486049 C29.4256352,36.8694184 31.230931,36.3871959 32.6805882,35.1243265 C34.1269401,35.2817734 38.0779665,35.8246031 42.7686948,37.4155419 C47.2234323,38.9247928 49.8682469,46.6423283 50.5120982,49.48889 C50.6502553,50.1015497 51.1956119,50.5178947 51.800462,50.5178947 C51.8969736,50.5178947 51.9941463,50.5073544 52.0913189,50.4856148 C52.8032572,50.3255328 53.2514413,49.6219623 53.092131,48.9124629 L53.092131,48.9124629 Z M44.4212907,21.3645174 C44.4212907,22.5338409 43.7357939,23.5391298 42.7501857,24.0272812 L42.7501857,21.3645174 L42.7501857,18.7010948 C43.7357939,19.1899049 44.4212907,20.194535 44.4212907,21.3645174 L44.4212907,21.3645174 Z M9.34725572,21.3645174 C9.34725572,20.1951938 10.0327525,19.1899049 11.0183607,18.7010948 L11.0183607,20.1912412 L11.0183607,21.3645174 L11.0183607,24.0272812 C10.0327525,23.538471 9.34725572,22.5338409 9.34725572,21.3645174 L9.34725572,21.3645174 Z M25.4309803,29.2520165 L20.4533614,29.2520165 C19.2205248,26.6538125 18.1873219,23.6866951 18.0385882,21.6115576 C17.7847495,18.0686719 18.5654358,13.5033692 19.7083712,11.8432591 C21.9882925,8.53094426 26.8356869,8.48351255 26.8865868,8.48351255 C26.9348426,8.48351255 31.7802539,8.53028549 34.0614973,11.8432591 C35.2050937,13.5053455 35.98578,18.0699894 35.7306192,21.6115576 C35.5184259,24.5832863 33.4936654,29.3864064 31.6599449,32.3126798 C31.5634333,32.4655153 31.4556841,32.6058341 31.3426465,32.7382477 C31.2540674,32.810054 31.1767259,32.8930595 31.1086389,32.9859466 C29.5518936,34.5004677 26.9229439,34.522866 26.8925362,34.522866 L26.8925362,34.5235248 C26.889892,34.5235248 26.8879089,34.522866 26.8852648,34.522866 C26.8826206,34.522866 26.8806375,34.5235248 26.8779933,34.5235248 L26.8779933,34.522866 C26.8475856,34.522866 24.2239243,34.5011264 22.6658568,32.9925344 C22.5964478,32.8956946 22.514479,32.8087365 22.4219337,32.7329775 C22.3102182,32.6025403 22.2044521,32.463539 22.1092625,32.3126798 C22.0233275,32.1756548 21.9367315,32.0307246 21.8501355,31.8864531 L25.4309803,31.8864531 C26.1607667,31.8864531 26.7530571,31.2961917 26.7530571,30.5689054 C26.7530571,29.8416191 26.1607667,29.2520165 25.4309803,29.2520165 L25.4309803,29.2520165 Z" id="Shape"></path>
                        <path d="M41.9886695,42.9439719 L34.2908776,42.9439719 C33.5610913,42.9439719 32.9688009,43.5342333 32.9688009,44.2615196 C32.9688009,44.9888059 33.5610913,45.5790673 34.2908776,45.5790673 L41.9886695,45.5790673 C42.7184558,45.5790673 43.3107462,44.9888059 43.3107462,44.2615196 C43.3107462,43.5342333 42.7184558,42.9439719 41.9886695,42.9439719 L41.9886695,42.9439719 Z" id="Shape"></path>
                    </g>
                </g>
            </g>
        </g>
    </g>
</svg>