<?xml version="1.0" encoding="UTF-8" standalone="no"?>
<svg width="172px" height="159px" viewBox="0 0 172 159" version="1.1" xmlns="http://www.w3.org/2000/svg" xmlns:xlink="http://www.w3.org/1999/xlink">
    <!-- Generator: Sketch 39.1 (31720) - http://www.bohemiancoding.com/sketch -->
    <title>Group 4</title>
    <desc>Created with Sketch.</desc>
    <defs>
        <path d="M0,22.9927399 C0,10.2942003 10.3063752,8.76039773e-16 22.9936516,8.76039773e-16 L136.897961,8.76039773e-16 C149.597005,8.76039773e-16 159.891613,10.2911415 159.891613,22.9927399 L159.891613,123.773625 C159.891613,136.472165 149.585238,146.766365 136.897961,146.766365 L22.9936516,146.766365 C10.2946085,146.766365 0,136.475224 0,123.773625 L0,22.9927399 Z" id="path-1"></path>
        <filter x="-50%" y="-50%" width="200%" height="200%" filterUnits="objectBoundingBox" id="filter-2">
            <feMorphology radius="2.5" operator="dilate" in="SourceAlpha" result="shadowSpreadOuter1"></feMorphology>
            <feOffset dx="0" dy="3" in="shadowSpreadOuter1" result="shadowOffsetOuter1"></feOffset>
            <feGaussianBlur stdDeviation="1.5" in="shadowOffsetOuter1" result="shadowBlurOuter1"></feGaussianBlur>
            <feComposite in="shadowBlurOuter1" in2="SourceAlpha" operator="out" result="shadowBlurOuter1"></feComposite>
            <feColorMatrix values="0 0 0 0 0.587372449   0 0 0 0 0.587372449   0 0 0 0 0.587372449  0 0 0 0.503198596 0" type="matrix" in="shadowBlurOuter1"></feColorMatrix>
        </filter>
        <mask id="mask-3" maskContentUnits="userSpaceOnUse" maskUnits="objectBoundingBox" x="-2" y="-2" width="163.891613" height="150.766365">
            <rect x="-2" y="-2" width="163.891613" height="150.766365" fill="white"></rect>
            <use xlink:href="#path-1" fill="black"></use>
        </mask>
    </defs>
    <g id="Page-1" stroke="none" stroke-width="1" fill="none" fill-rule="evenodd">
        <g id="home_appliance_selected" transform="translate(-555.000000, -329.000000)">
            <g id="Group-5" transform="translate(561.000000, 332.000000)">
                <g id="light">
                    <g id="Group-4">
                        <g id="Rectangle-14">
                            <use fill="black" fill-opacity="1" filter="url(#filter-2)" xlink:href="#path-1"></use>
                            <use fill="#009B63" fill-rule="evenodd" xlink:href="#path-1"></use>
                            <use stroke="#FFFFFF" mask="url(#mask-3)" stroke-width="4" xlink:href="#path-1"></use>
                        </g>
                        <g id="light_selected" transform="translate(51.000000, 27.000000)" fill="#FFFFFF">
                            <g id="light" transform="translate(0.235987, 0.501145)">
                                <path d="M33.7515445,44.267168 L32.7712092,45.8279621 L32.4911134,46.3955236 L32.3510655,45.6860717 L32.2110176,43.6996065 L31.9309218,41.7131414 L31.650826,39.7266762 L31.3707302,37.5983206 L30.5304428,39.5847858 L29.4100595,41.4293606 C29.1299637,42.1388125 28.8498679,42.7063739 28.5697721,43.4158258 L27.7294847,45.2604006 L27.4493889,43.6996065 C27.309341,42.9901547 27.1692931,42.4225932 27.1692931,41.7131414 L26.8891973,39.7266762 L26.4690536,37.1726495 L25.7688141,39.5847858 C25.3486704,40.8617991 24.9285267,42.2807028 24.6484308,43.5577162 C24.368335,44.5509488 24.0882392,45.5441814 23.8081434,46.6793043 L23.5280476,46.1117428 L22.8278081,44.6928391 L22.1275686,43.2739354 L21.4273291,41.8550317 L21.8474728,43.4158258 L22.2676165,44.9766199 L22.8278081,46.537414 L23.3879997,48.098208 L23.6680955,49.0914406 L24.0882392,48.098208 C24.5083829,46.8211947 25.0685746,45.5441814 25.4887183,44.1252777 C25.6287662,43.5577162 25.908862,43.1320451 26.0489099,42.5644836 C26.0489099,42.9901547 26.1889578,43.5577162 26.1889578,43.9833873 L26.7491494,47.9563177 L27.0292452,50.368454 L28.0095805,48.2400984 C28.2896763,47.5306465 28.5697721,46.9630851 28.8498679,46.2536332 L29.6901553,44.267168 C29.9702511,43.5577162 30.250347,42.9901547 30.5304428,42.2807028 L30.5304428,42.2807028 L30.9505865,44.1252777 L31.3707302,46.1117428 L31.7908739,48.098208 L32.0709697,49.3752214 L32.6311613,48.2400984 L33.3314008,46.537414 L34.0316403,44.8347295 L34.7318798,43.1320451 C35.0119756,42.5644836 35.1520235,41.9969221 35.4321193,41.4293606 C35.1520235,41.9969221 34.7318798,42.5644836 34.451784,42.9901547 L33.7515445,44.267168 L33.7515445,44.267168 Z" id="Shape"></path>
                                <path d="M48.3165264,8.79457538 C42.8546582,3.40274129 35.7122152,0.423043512 28.1496284,0.564933883 C20.5870417,0.706824254 13.5846465,3.68652204 8.40287415,9.22024649 C3.08105386,14.7539709 0.280095805,21.9903798 0.420143708,29.5105695 C0.56019161,35.1861843 2.24076644,40.7199088 5.4618682,45.402291 C10.083449,52.2130288 12.6043112,60.1588895 12.6043112,68.388531 L12.6043112,70.3749962 L12.6043112,74.489817 C12.6043112,83.4289103 19.7467543,90.6653192 28.5697721,90.6653192 C37.39279,90.6653192 44.535233,83.4289103 44.535233,74.489817 L44.535233,70.3749962 L44.535233,68.388531 C44.535233,60.1588895 47.0560953,52.2130288 51.677676,45.402291 C55.0388257,40.5780184 56.8594484,34.9024036 56.8594484,28.943008 C56.7194005,21.4228184 53.7783946,14.1864095 48.3165264,8.79457538 L48.3165264,8.79457538 Z M28.5697721,86.8342792 C25.6287662,86.8342792 22.8278081,85.6991562 20.7270896,83.8545814 L36.4124547,83.8545814 C34.1716882,85.8410466 31.5107781,86.8342792 28.5697721,86.8342792 L28.5697721,86.8342792 L28.5697721,86.8342792 Z M40.4738438,70.5168866 L40.4738438,74.6317073 C40.4738438,75.3411592 40.3337959,76.050611 40.3337959,76.7600629 L21.4273291,76.7600629 C20.8671375,76.7600629 20.4469938,77.185734 20.4469938,77.7532955 C20.4469938,78.320857 20.8671375,78.7465281 21.4273291,78.7465281 L39.7736043,78.7465281 C39.3534606,79.881651 38.793269,80.8748836 38.0930295,81.8681162 L18.9064668,81.8681162 C17.3659399,79.881651 16.5256525,77.3276244 16.5256525,74.6317073 L16.5256525,74.3479266 L35.5721672,74.3479266 C36.1323589,74.3479266 36.5525026,73.9222555 36.5525026,73.354694 C36.5525026,72.7871325 36.1323589,72.3614614 35.5721672,72.3614614 L16.5256525,72.3614614 L16.5256525,70.3749962 L16.5256525,70.3749962 L40.4738438,70.3749962 L40.4738438,70.5168866 Z M48.3165264,43.2739354 C43.5548977,50.0846732 40.8939875,58.1724243 40.4738438,66.5439562 L32.9112571,66.5439562 L38.793269,43.9833873 C38.9333169,43.4158258 38.6532211,42.8482643 38.0930295,42.7063739 C37.5328379,42.5644836 36.9726463,42.8482643 36.8325984,43.4158258 L30.8105386,66.4020658 L25.3486704,66.4020658 L19.6067064,43.4158258 C19.4666585,42.8482643 18.9064668,42.5644836 18.3462752,42.7063739 C17.7860836,42.8482643 17.5059878,43.4158258 17.6460357,43.9833873 L23.5280476,66.5439562 L16.5256525,66.5439562 C16.1055088,58.1724243 13.4445986,50.2265636 8.68296996,43.2739354 C5.88201191,39.3010051 4.34148498,34.4767325 4.34148498,29.5105695 C4.20143708,22.9836124 6.72229932,16.7404361 11.2038322,12.0580539 C15.6853651,7.37567167 21.8474728,4.67975463 28.2896763,4.53786426 C34.8719277,4.39597389 41.0340354,6.95000056 45.6556162,11.6323828 C50.277197,16.314765 52.9381072,22.5579413 52.9381072,29.0848984 C52.7980593,34.3348421 51.2575323,39.1591147 48.3165264,43.2739354 L48.3165264,43.2739354 Z" id="Shape"></path>
                                <path d="M28.5697721,11.2067117 C28.5697721,10.0715887 27.5894368,9.22024649 26.6091015,9.22024649 C21.8474728,9.22024649 17.225892,11.2067117 13.8647424,14.7539709 C10.5035927,18.3012302 8.68296996,22.9836124 8.68296996,27.807885 C8.68296996,28.943008 9.52325737,29.7943502 10.6436406,29.7943502 L10.6436406,29.7943502 C11.7640238,29.7943502 12.6043112,28.8011176 12.6043112,27.807885 C12.6043112,23.976845 14.0047903,20.4295858 16.6657004,17.5917784 C19.3266106,14.8958613 22.8278081,13.3350672 26.6091015,13.1931769 C27.7294847,13.1931769 28.5697721,12.3418346 28.5697721,11.2067117 L28.5697721,11.2067117 Z" id="Shape"></path>
                            </g>
                        </g>
                    </g>
                </g>
            </g>
        </g>
    </g>
</svg>