<?xml version="1.0" encoding="UTF-8" standalone="no"?>
<svg width="126px" height="126px" viewBox="0 0 126 126" version="1.1" xmlns="http://www.w3.org/2000/svg" xmlns:xlink="http://www.w3.org/1999/xlink">
    <!-- Generator: Sketch 39.1 (31720) - http://www.bohemiancoding.com/sketch -->
    <title>Group 2</title>
    <desc>Created with Sketch.</desc>
    <defs>
        <ellipse id="path-1" cx="52.669833" cy="52.7232796" rx="52.669833" ry="52.7232796"></ellipse>
        <filter x="-50%" y="-50%" width="200%" height="200%" filterUnits="objectBoundingBox" id="filter-2">
            <feMorphology radius="6.5" operator="dilate" in="SourceAlpha" result="shadowSpreadOuter1"></feMorphology>
            <feOffset dx="0" dy="3" in="shadowSpreadOuter1" result="shadowOffsetOuter1"></feOffset>
            <feGaussianBlur stdDeviation="1.5" in="shadowOffsetOuter1" result="shadowBlurOuter1"></feGaussianBlur>
            <feComposite in="shadowBlurOuter1" in2="SourceAlpha" operator="out" result="shadowBlurOuter1"></feComposite>
            <feColorMatrix values="0 0 0 0 0.143893495   0 0 0 0 0.140362018   0 0 0 0 0.140362018  0 0 0 0.371574955 0" type="matrix" in="shadowBlurOuter1"></feColorMatrix>
        </filter>
        <mask id="mask-3" maskContentUnits="userSpaceOnUse" maskUnits="objectBoundingBox" x="-6" y="-6" width="117.339666" height="117.446559">
            <rect x="-6" y="-6" width="117.339666" height="117.446559" fill="white"></rect>
            <use xlink:href="#path-1" fill="black"></use>
        </mask>
    </defs>
    <g id="Symbols" stroke="none" stroke-width="1" fill="none" fill-rule="evenodd">
        <g id="ModeParty" transform="translate(-3.000000, -6.000000)">
            <g transform="translate(13.000000, 13.000000)" id="Group-2">
                <g>
                    <g id="Oval-1">
                        <use fill="black" fill-opacity="1" filter="url(#filter-2)" xlink:href="#path-1"></use>
                        <use fill="#FFFFFF" fill-rule="evenodd" xlink:href="#path-1"></use>
                        <use stroke="#009B63" mask="url(#mask-3)" stroke-width="12" xlink:href="#path-1"></use>
                    </g>
                    <g id="party_vec" transform="translate(27.098120, 22.610430)" fill="#009B63">
                        <g id="Group">
                            <path d="M20.1235635,12.4504053 C20.1235635,11.0784598 19.7527776,9.77511158 19.146037,8.64325656 C19.146037,8.64325656 19.146037,8.64325656 19.146037,8.60895792 C18.1685104,6.85972743 16.5505355,5.55637922 14.6291902,5.00760102 L14.6291902,4.21873237 C14.6291902,4.01294055 14.494359,3.875746 14.2921121,3.875746 L12.8089684,3.875746 L12.8089684,0.377285009 C12.8089684,0.171493186 12.6741372,0.0342986371 12.4718903,0.0342986371 C12.2696434,0.0342986371 12.1348122,0.171493186 12.1348122,0.377285009 L12.1348122,3.875746 L10.8539153,3.875746 C10.6516685,3.875746 10.5168372,4.01294055 10.5168372,4.21873237 L10.5168372,4.97330238 C8.56178414,5.52208058 6.91010138,6.82542879 5.93257484,8.54036065 C5.89886703,8.57465928 5.86515922,8.60895792 5.86515922,8.64325656 C5.2247108,9.77511158 4.88763268,11.0784598 4.88763268,12.4504053 C4.88763268,16.7034363 8.29212165,20.1675986 12.4718903,20.2018973 L12.4718903,20.2018973 L12.4718903,20.2018973 L12.5055981,20.2018973 L12.5055981,20.2018973 L12.5055981,20.2018973 L12.5055981,20.2018973 C16.7190745,20.2018973 20.1235635,16.7377349 20.1235635,12.4504053 L20.1235635,12.4504053 Z M5.56178891,12.7933917 L8.29212165,12.7933917 C8.32582946,13.8223508 8.52807633,14.8170112 8.83144664,15.7087758 L6.33706858,15.7087758 C5.89886703,14.8513099 5.62920454,13.8566494 5.56178891,12.7933917 L5.56178891,12.7933917 Z M6.37077639,9.12343748 L8.83144664,9.12343748 C8.49436852,10.0495007 8.29212165,11.0784598 8.25841384,12.1417175 L5.5280811,12.1417175 C5.62920454,11.0441612 5.89886703,10.015202 6.37077639,9.12343748 L6.37077639,9.12343748 Z M19.4156995,12.1074189 L16.6179511,12.1074189 C16.5842433,11.0441612 16.3819964,10.0495007 16.0449183,9.08913884 L18.5730042,9.08913884 C19.0786214,10.015202 19.3819917,11.0441612 19.4156995,12.1074189 L19.4156995,12.1074189 Z M15.9775027,12.1074189 L12.8426762,12.1074189 L12.8426762,9.08913884 L15.3370543,9.08913884 C15.7078402,10.0495007 15.9100871,11.0441612 15.9775027,12.1074189 L15.9775027,12.1074189 Z M12.8426762,8.43746474 L12.8426762,5.7278724 C13.7527871,6.41384514 14.5280668,7.37420698 15.033684,8.43746474 L12.8426762,8.43746474 L12.8426762,8.43746474 Z M12.16852,5.62497649 L12.16852,8.4031661 L9.8763888,8.4031661 C10.4157138,7.30560971 11.1909934,6.34524787 12.16852,5.62497649 L12.16852,5.62497649 Z M12.16852,9.12343748 L12.16852,12.1417175 L8.96627788,12.1417175 C8.9999857,11.0784598 9.20223256,10.0837993 9.57301849,9.12343748 L12.16852,9.12343748 L12.16852,9.12343748 Z M8.96627788,12.7933917 L12.16852,12.7933917 L12.16852,15.7087758 L9.57301849,15.7087758 C9.20223256,14.8170112 8.9999857,13.8223508 8.96627788,12.7933917 L8.96627788,12.7933917 Z M12.16852,16.4290472 L12.16852,19.2415354 C11.1909934,18.5212641 10.4157138,17.5609022 9.8763888,16.4290472 L12.16852,16.4290472 L12.16852,16.4290472 Z M12.8426762,19.2415354 L12.8426762,16.4290472 L15.1010996,16.4290472 C14.5617746,17.5266036 13.7864949,18.5212641 12.8426762,19.2415354 L12.8426762,19.2415354 Z M12.8426762,15.7430744 L12.8426762,12.8276903 L15.9775027,12.8276903 C15.9437949,13.8566494 15.741548,14.8513099 15.4044699,15.7430744 L12.8426762,15.7430744 L12.8426762,15.7430744 Z M16.6516589,12.7933917 L19.4494073,12.7933917 C19.4156995,13.8566494 19.1123292,14.8513099 18.6741276,15.7087758 L16.1460418,15.7087758 C16.4157042,14.8170112 16.6179511,13.8223508 16.6516589,12.7933917 L16.6516589,12.7933917 Z M18.2022183,8.43746474 L15.8089636,8.43746474 C15.3033465,7.30560971 14.5617746,6.31094923 13.6853715,5.52208058 L13.7864949,5.52208058 C15.573009,5.86506695 17.1572761,6.9283247 18.2022183,8.43746474 L18.2022183,8.43746474 Z M11.1909934,4.56171874 L13.9213262,4.56171874 L13.9213262,4.83610784 L13.8539106,4.83610784 C13.415709,4.76751056 12.9775075,4.69891329 12.5055981,4.69891329 C12.0673966,4.69891329 11.629195,4.73321192 11.2247013,4.8018092 L11.2247013,4.56171874 L11.1909934,4.56171874 Z M11.2247013,5.52208058 L11.2247013,5.52208058 C10.3482982,6.31094923 9.64043412,7.30560971 9.13481694,8.43746474 L6.80897794,8.43746474 C7.82021229,6.9283247 9.40447943,5.86506695 11.2247013,5.52208058 L11.2247013,5.52208058 Z M6.74156232,16.4290472 L9.10110913,16.4290472 C9.6067263,17.5952009 10.3482982,18.62416 11.2921169,19.4130286 C9.40447943,19.0700422 7.78650448,17.9724859 6.74156232,16.4290472 L6.74156232,16.4290472 Z M13.6853715,19.4130286 C14.5954824,18.5898613 15.3370543,17.5952009 15.8426714,16.4290472 L18.2359261,16.4290472 C17.1909839,17.9724859 15.573009,19.0700422 13.6853715,19.4130286 L13.6853715,19.4130286 Z" id="Shape"></path>
                            <path d="M19.685362,6.07085877 C19.7864854,6.07085877 19.853901,6.03656014 19.9213167,5.96796286 L21.6067072,4.28732964 C21.7415385,4.15013509 21.7415385,3.94434327 21.6067072,3.80714872 C21.471876,3.66995417 21.2696291,3.66995417 21.1347979,3.80714872 L19.4494073,5.48778194 C19.314576,5.62497649 19.314576,5.83076831 19.4494073,5.96796286 C19.4831151,6.03656014 19.5842385,6.07085877 19.685362,6.07085877 L19.685362,6.07085877 Z" id="Shape"></path>
                            <path d="M21.3033369,8.64325656 C21.3707525,8.78045111 21.471876,8.84904838 21.6067072,8.84904838 C21.640415,8.84904838 21.6741229,8.84904838 21.7415385,8.81474974 L23.966254,7.95728382 C24.1347931,7.88868654 24.2359165,7.68289472 24.1685009,7.51140153 C24.1010853,7.33990835 23.8988384,7.23701244 23.7302994,7.30560971 L21.5055838,8.16307564 C21.3370447,8.26597155 21.2359213,8.47176337 21.3033369,8.64325656 L21.3033369,8.64325656 Z" id="Shape"></path>
                            <path d="M19.9213167,17.6980968 C19.7864854,17.5609022 19.5842385,17.5609022 19.4494073,17.6980968 C19.314576,17.8352913 19.314576,18.0410831 19.4494073,18.1782777 L21.1347979,19.8589109 C21.2022135,19.9275082 21.2696291,19.9618068 21.3707525,19.9618068 C21.471876,19.9618068 21.5392916,19.9275082 21.6067072,19.8589109 C21.7415385,19.7217164 21.7415385,19.5159245 21.6067072,19.37873 L19.9213167,17.6980968 L19.9213167,17.6980968 Z" id="Shape"></path>
                            <path d="M24.6067025,11.3528489 C24.5729947,11.3528489 24.5729947,11.3528489 24.6067025,11.3528489 L22.2471557,11.3871475 C22.0449088,11.3871475 21.9100775,11.5586407 21.9100775,11.7301339 C21.9100775,11.9016271 22.0786166,12.0731203 22.2471557,12.0731203 L22.2471557,12.0731203 L24.6067025,12.0388216 C24.8089493,12.0388216 24.9437806,11.8673284 24.9437806,11.6958353 C24.9100728,11.5243421 24.7752415,11.3528489 24.6067025,11.3528489 L24.6067025,11.3528489 Z" id="Shape"></path>
                            <path d="M23.9325462,15.7087758 L21.7078307,14.8513099 C21.5392916,14.7827126 21.3370447,14.8856085 21.2696291,15.0571017 C21.2022135,15.2285949 21.3033369,15.4343867 21.471876,15.502984 L23.6965915,16.3604499 C23.7302994,16.3604499 23.7640072,16.3947486 23.8314228,16.3947486 C23.966254,16.3947486 24.1010853,16.3261513 24.1347931,16.1889567 C24.2022087,15.9488663 24.1347931,15.7773731 23.9325462,15.7087758 L23.9325462,15.7087758 Z" id="Shape"></path>
                            <path d="M5.12358736,5.96796286 C5.19100299,6.03656014 5.25841861,6.07085877 5.35954204,6.07085877 C5.46066548,6.07085877 5.5280811,6.03656014 5.59549672,5.96796286 C5.73032797,5.83076831 5.73032797,5.62497649 5.59549672,5.48778194 L3.91010614,3.80714872 C3.7752749,3.66995417 3.57302803,3.66995417 3.43819678,3.80714872 C3.30336554,3.94434327 3.30336554,4.15013509 3.43819678,4.28732964 L5.12358736,5.96796286 L5.12358736,5.96796286 Z" id="Shape"></path>
                            <path d="M1.07864997,7.99158245 L3.30336554,8.84904838 C3.33707335,8.84904838 3.37078116,8.88334702 3.43819678,8.88334702 C3.57302803,8.88334702 3.70785928,8.81474974 3.74156709,8.6775552 C3.80898271,8.50606201 3.70785928,8.30027019 3.53932022,8.23167291 L1.34831246,7.33990835 C1.17977341,7.27131107 0.977526536,7.37420698 0.910110913,7.54570017 C0.84269529,7.71719336 0.910110913,7.92298518 1.07864997,7.99158245 L1.07864997,7.99158245 Z" id="Shape"></path>
                            <path d="M5.12358736,17.6980968 L3.43819678,19.37873 C3.30336554,19.5159245 3.30336554,19.7217164 3.43819678,19.8589109 C3.50561241,19.9275082 3.60673584,19.9618068 3.67415146,19.9618068 C3.7752749,19.9618068 3.84269052,19.9275082 3.91010614,19.8589109 L5.59549672,18.1782777 C5.73032797,18.0410831 5.73032797,17.8352913 5.59549672,17.6980968 C5.46066548,17.5609022 5.25841861,17.5609022 5.12358736,17.6980968 L5.12358736,17.6980968 Z" id="Shape"></path>
                            <path d="M2.83145617,12.0731203 C2.99999523,12.0731203 3.16853429,11.9359257 3.16853429,11.7301339 C3.16853429,11.5243421 3.03370304,11.3871475 2.83145617,11.3871475 L0.471909362,11.3528489 C0.269662493,11.3528489 0.134831246,11.4900434 0.134831246,11.6958353 C0.134831246,11.9016271 0.269662493,12.0388216 0.471909362,12.0388216 L2.83145617,12.0731203 C2.79774836,12.0731203 2.79774836,12.0731203 2.83145617,12.0731203 L2.83145617,12.0731203 Z" id="Shape"></path>
                            <path d="M3.74156709,15.0228031 C3.67415146,14.8513099 3.47190459,14.748414 3.30336554,14.8170112 L1.07864997,15.6744772 C0.910110913,15.7430744 0.808987478,15.9488663 0.876403101,16.1203595 C0.943818725,16.257554 1.04494216,16.3261513 1.17977341,16.3261513 C1.21348122,16.3261513 1.24718903,16.3261513 1.31460465,16.2918526 L3.53932022,15.4343867 C3.70785928,15.4000881 3.80898271,15.1942963 3.74156709,15.0228031 L3.74156709,15.0228031 Z" id="Shape"></path>
                        </g>
                        <path d="M43.6925292,35.0647335 C43.6084466,34.8672218 43.37964,34.776336 43.1834472,34.859098 L41.8564709,35.4191376 L43.2670203,27.5450721 C43.2945382,27.3912262 43.2262529,27.2358571 43.0947783,27.1510641 L36.8645121,23.1612262 C36.8619641,23.159703 36.8589066,23.159703 36.8563586,23.1581798 C36.8538107,23.1566565 36.8527915,23.1536101 36.8502435,23.1525946 C36.8191585,23.1343159 36.7845062,23.1292385 36.7503636,23.1200991 C36.7320183,23.1155294 36.7152018,23.1048668 36.6968565,23.1028359 C36.6408014,23.096743 36.5832176,23.1023281 36.5281817,23.1211146 L35.377524,23.5166457 L34.9983879,21.8045391 C36.0659822,21.4399803 36.8369942,20.4326198 36.8369942,19.2470419 C36.8369942,17.7552954 35.6190704,16.5417916 34.1218904,16.5417916 C32.6247105,16.5417916 31.4067867,17.7552954 31.4067867,19.2470419 C31.4067867,20.7387883 32.6247105,21.9522921 34.1218904,21.9522921 C34.1596002,21.9522921 34.1962908,21.9482302 34.2340006,21.946707 L34.6381067,23.7710246 L33.5429944,24.1472615 L27.1649467,20.1619932 L30.493089,10.6326883 C30.5639223,10.4306069 30.456908,10.2102468 30.2540906,10.1396706 C30.0512732,10.0696022 29.8296009,10.1757203 29.7592772,10.3783095 L26.3292165,20.1990584 C26.2695943,20.3696598 26.3358412,20.5585399 26.4897379,20.6545031 L33.1495898,24.8154502 C34.0062131,28.5564945 28.5923126,35.7400306 28.5367671,35.8131455 C28.5362575,35.814161 28.5357479,35.8151765 28.5352383,35.8161919 C28.5347287,35.8172074 28.5337096,35.8177152 28.5332,35.8187307 L21.6506566,45.1886046 C21.5971495,45.2612117 21.5706507,45.3505743 21.5762562,45.4404447 L22.1918428,55.5633002 C22.2005059,55.7090222 22.2912132,55.837481 22.4257453,55.8953636 C22.45734,55.9085649 23.2018532,56.2233651 24.1568278,56.2248883 L24.2837161,57.9004374 L20.6951724,57.9324252 C20.4801248,57.9344562 20.3078829,58.1091195 20.3099212,58.3228789 C20.3119596,58.5356229 20.4852207,58.706732 20.6987396,58.706732 L20.7023067,58.706732 L24.7061675,58.67119 C24.8136913,58.6701746 24.9161192,58.6249855 24.9889908,58.5457777 C25.0618624,58.4665699 25.0980434,58.3614673 25.0903995,58.2548415 L24.9303878,56.1451728 C25.4506807,56.0446398 25.9261296,55.8461126 26.3424659,55.5353744 C26.445913,55.4581976 26.5040064,55.3348163 26.4978913,55.2063575 L26.0514892,46.2208444 L30.4543601,40.7113342 L33.9200922,45.8933507 L33.5812138,55.1885865 C33.5756083,55.3383705 33.6571429,55.4774918 33.7901463,55.546037 C34.2971899,55.8085397 34.8765955,55.9456301 35.5089986,55.9659398 L35.4172721,58.3046002 C35.4131954,58.4097028 35.4524339,58.5122667 35.5253055,58.5884281 C35.5986867,58.6640816 35.6995858,58.7072397 35.8055809,58.7072397 L39.7375892,58.7072397 C39.9526369,58.7072397 40.1264076,58.5340997 40.1264076,58.3198325 C40.1264076,58.1055653 39.9526369,57.9324252 39.7375892,57.9324252 L36.209687,57.9324252 L36.2881641,55.933952 C37.1009626,55.8384965 37.6946367,55.5947803 37.7252122,55.5820867 C37.8668787,55.5221731 37.9596243,55.3850827 37.9621723,55.2317446 L38.1150498,45.3993176 C38.1160689,45.3241717 38.0951757,45.2500414 38.054918,45.1865736 L33.4762379,37.9690187 C37.5835458,32.7372435 37.3878626,26.5087703 37.1514121,24.2660732 L42.4562601,27.6628682 L40.9651953,35.9862856 C40.9402253,36.1264224 40.994242,36.2685902 41.1053329,36.3569373 C41.1756566,36.4122812 41.2612679,36.4412225 41.3478985,36.4412225 C41.3993672,36.4412225 41.450836,36.4310677 41.4992472,36.410758 L43.4861446,35.571968 C43.6838661,35.4886982 43.7761022,35.2617375 43.6925292,35.0647335 L43.6925292,35.0647335 Z M32.1834042,19.2470419 C32.1834042,18.1823065 33.0527674,17.3166061 34.1208712,17.3166061 C35.1889751,17.3166061 36.0583383,18.1828143 36.0583383,19.2470419 C36.0583383,20.3112694 35.1889751,21.1774776 34.1208712,21.1774776 C33.0527674,21.1774776 32.1834042,20.3112694 32.1834042,19.2470419 L32.1834042,19.2470419 Z M37.1886123,54.9519787 C36.8838766,55.0499729 36.3121149,55.1997569 35.6654432,55.1997569 C35.1889751,55.1997569 34.7532743,55.1190258 34.367004,54.9595948 L34.7007864,45.7963719 C34.703844,45.7151332 34.6809123,45.6354177 34.6360683,45.5673802 L30.9624229,40.0746255 L30.5099056,39.3978052 L30.0013332,40.0340061 L25.35182,45.8527313 C25.2932169,45.9263539 25.263151,46.0192708 25.2677374,46.1132031 L25.7105724,55.0296632 C25.2697757,55.3089214 24.7510115,55.4505815 24.1660004,55.4505815 C23.6518226,55.4505815 23.2049108,55.3393859 22.9521534,55.2606859 L22.3605176,45.532346 L28.8394645,36.7093104 C29.9702481,38.1431743 31.5301078,38.3757202 32.4096628,38.3757202 C32.557954,38.3757202 32.6868806,38.3691196 32.7913469,38.3604879 C32.7964428,38.3599802 32.8015387,38.3625189 32.8066346,38.3620112 L37.3358843,45.5018815 L37.1886123,54.9519787 L37.1886123,54.9519787 Z M32.80001,37.5790727 C32.7526179,37.5846579 32.7067547,37.5892276 32.6598723,37.5937973 C32.324561,37.614107 31.7283389,37.6029366 31.0826865,37.3825765 C30.5297796,37.1815106 29.8596668,36.7930879 29.3235765,36.054323 C30.2617345,34.7768437 34.615175,28.5966061 33.9486293,24.8266205 L36.3360657,24.0066169 C36.5460174,25.7613738 36.9888524,32.3153097 32.80001,37.5790727 L32.80001,37.5790727 Z" id="Shape" stroke="#009B63" stroke-width="0.5"></path>
                    </g>
                </g>
            </g>
        </g>
    </g>
</svg>