<?xml version="1.0" encoding="UTF-8" standalone="no"?>
<svg width="419px" height="860px" viewBox="0 0 419 860" version="1.1" xmlns="http://www.w3.org/2000/svg" xmlns:xlink="http://www.w3.org/1999/xlink">
    <!-- Generator: Sketch 39 (31667) - http://www.bohemiancoding.com/sketch -->
    <title>floorplan</title>
    <desc>Created with Sketch.</desc>
    <defs>
        <polygon id="path-1" points="0 861.327519 419.496335 861.327519 419.496335 0.717494186 0 0.717494186"></polygon>
    </defs>
    <g id="Page-1" stroke="none" stroke-width="1" fill="none" fill-rule="evenodd">
        <g id="Spaces" transform="translate(-72.000000, -83.000000)">
            <g id="floorplan" transform="translate(72.000000, 81.000000)">
                <polygon id="Stroke-1" stroke="#221F20" stroke-width="0.5" stroke-linecap="round" stroke-linejoin="round" points="361.322151 377.457134 394.523904 377.457134 394.523904 178.339953 361.322151 178.339953"></polygon>
                <polygon id="Stroke-2" stroke="#221F20" stroke-width="0.5" stroke-linecap="round" stroke-linejoin="round" points="42.1422311 570.376101 75.3439841 570.376101 75.3439841 522.967965 42.1422311 522.967965"></polygon>
                <polygon id="Stroke-3" stroke="#221F20" stroke-width="0.5" stroke-linecap="round" stroke-linejoin="round" points="42.1422311 506.918841 75.3439841 506.918841 75.3439841 459.510705 42.1422311 459.510705"></polygon>
                <polygon id="Stroke-4" stroke="#221F20" stroke-width="0.5" stroke-linecap="round" stroke-linejoin="round" points="128.903187 699.837808 249.381275 699.837808 249.381275 685.615033 128.903187 685.615033"></polygon>
                <polygon id="Fill-5" fill="#060707" points="0.837322709 2.92717558 0.837322709 159.37603 0.837322709 861.02848 256.97039 861.02848 256.97039 842.064222 249.857163 842.064222 249.857163 770.950346 246.062104 770.950346 246.062104 842.064222 239.422422 842.064222 239.422422 770.950346 235.625689 770.950346 235.625689 842.064222 150.248558 842.064222 150.248558 770.950346 146.453498 770.950346 146.453498 842.064222 139.813817 842.064222 139.813817 770.950346 136.018757 770.950346 136.018757 842.064222 19.8092749 842.064222 19.8092749 699.838143 53.0127012 699.838143 53.0127012 685.615367 19.8092749 685.615367 19.8092749 178.340288 19.8092749 159.37603 19.8092749 2.92717558"></polygon>
                <polygon id="Stroke-6" stroke="#221F20" points="53.0121992 685.6152 53.0121992 699.837975 19.8087729 699.837975 19.8087729 842.064055 136.018255 842.064055 136.018255 770.951851 139.813315 770.951851 139.813315 842.064055 146.452996 842.064055 146.452996 770.951851 150.248056 770.951851 150.248056 842.064055 235.626861 842.064055 235.626861 770.951851 239.420247 770.951851 239.420247 842.064055 246.061602 842.064055 246.061602 770.951851 249.856661 770.951851 249.856661 842.064055 256.971562 842.064055 256.971562 861.028313 0.836820717 861.028313 0.836820717 159.375863 0.836820717 2.92700833 19.8087729 2.92700833 19.8087729 159.375863 19.8087729 178.340121 19.8087729 685.6152"></polygon>
                <polygon id="Fill-8" fill="#221F20" points="399.267394 2.92717558 342.348191 2.92717558 342.348191 17.1499508 399.267394 17.1499508 399.267394 164.117513 399.267394 178.340288 399.267394 842.064222 342.348191 842.064222 342.348191 861.02848 418.24102 861.02848 418.24102 159.37603 418.24102 2.92717558"></polygon>
                <polygon id="Stroke-9" stroke="#221F20" stroke-width="1.5" stroke-linecap="round" stroke-linejoin="round" points="399.268064 2.92700833 418.241689 2.92700833 418.241689 159.375863 418.241689 861.028313 342.348861 861.028313 342.348861 842.064055 399.268064 842.064055 399.268064 178.340121 399.268064 164.117346 399.268064 17.1497835 342.348861 17.1497835 342.348861 2.92700833"></polygon>
                <polygon id="Stroke-11" stroke="#221F20" stroke-width="0.5" stroke-linecap="round" stroke-linejoin="round" points="342.348526 97.7447849 399.267729 97.7447849 399.267729 93.0033023 342.348526 93.0033023"></polygon>
                <polygon id="Stroke-12" stroke="#221F20" stroke-width="0.5" stroke-linecap="round" stroke-linejoin="round" points="337.604701 351.975219 342.348526 351.975219 342.348526 199.082058 337.604701 199.082058"></polygon>
                <polygon id="Stroke-13" stroke="#221F20" stroke-width="0.5" stroke-linecap="round" stroke-linejoin="round" points="323.376574 173.598471 399.267729 173.598471 399.267729 166.013771 323.376574 166.013771"></polygon>
                <polygon id="Stroke-14" stroke="#221F20" stroke-width="0.75" stroke-linecap="round" stroke-linejoin="round" points="323.3749 173.598471 329.7 173.598471 329.7 166.013771 323.3749 166.013771"></polygon>
                <polygon id="Stroke-15" stroke="#221F20" stroke-width="0.75" stroke-linecap="round" stroke-linejoin="round" points="392.942629 173.598471 399.267729 173.598471 399.267729 166.013771 392.942629 166.013771"></polygon>
                <polygon id="Stroke-16" stroke="#221F20" stroke-width="0.75" stroke-linecap="round" stroke-linejoin="round" points="317.051474 173.598471 323.376574 173.598471 323.376574 166.013771 317.051474 166.013771"></polygon>
                <polygon id="Stroke-17" stroke="#221F20" stroke-width="0.5" stroke-linecap="round" stroke-linejoin="round" points="247.483745 173.598471 253.808845 173.598471 253.808845 166.013771 247.483745 166.013771"></polygon>
                <polygon id="Stroke-18" stroke="#221F20" stroke-width="0.5" stroke-linecap="round" stroke-linejoin="round" points="247.485418 173.598471 323.376574 173.598471 323.376574 166.013771 247.485418 166.013771"></polygon>
                <polygon id="Stroke-19" stroke="#221F20" stroke-width="0.5" stroke-linecap="round" stroke-linejoin="round" points="241.160319 173.598471 247.483745 173.598471 247.483745 166.013771 241.160319 166.013771"></polygon>
                <polygon id="Stroke-20" stroke="#221F20" stroke-width="0.5" stroke-linecap="round" stroke-linejoin="round" points="171.594263 173.598471 177.917689 173.598471 177.917689 166.013771 171.594263 166.013771"></polygon>
                <polygon id="Stroke-21" stroke="#221F20" stroke-width="0.5" stroke-linecap="round" stroke-linejoin="round" points="171.59259 173.598471 247.483745 173.598471 247.483745 166.013771 171.59259 166.013771"></polygon>
                <polygon id="Stroke-22" stroke="#221F20" stroke-width="0.5" stroke-linecap="round" stroke-linejoin="round" points="165.269163 173.598471 171.59259 173.598471 171.59259 166.013771 165.269163 166.013771"></polygon>
                <polygon id="Stroke-23" stroke="#221F20" stroke-width="0.5" stroke-linecap="round" stroke-linejoin="round" points="95.7014343 173.598471 102.024861 173.598471 102.024861 166.013771 95.7014343 166.013771"></polygon>
                <polygon id="Stroke-24" stroke="#221F20" stroke-width="0.5" stroke-linecap="round" stroke-linejoin="round" points="95.7014343 173.598471 171.59259 173.598471 171.59259 166.013771 95.7014343 166.013771"></polygon>
                <polygon id="Stroke-25" stroke="#221F20" stroke-width="0.5" stroke-linecap="round" stroke-linejoin="round" points="89.3763347 173.598471 95.7014343 173.598471 95.7014343 166.013771 89.3763347 166.013771"></polygon>
                <polygon id="Stroke-26" stroke="#221F20" stroke-width="0.5" stroke-linecap="round" stroke-linejoin="round" points="19.8086056 173.598471 26.1337052 173.598471 26.1337052 166.013771 19.8086056 166.013771"></polygon>
                <polygon id="Stroke-27" stroke="#221F20" stroke-width="0.5" stroke-linecap="round" stroke-linejoin="round" points="19.8102789 173.598471 95.7014343 173.598471 95.7014343 166.013771 19.8102789 166.013771"></polygon>
                <polygon id="Stroke-28" stroke="#221F20" stroke-width="0.75" stroke-linecap="round" stroke-linejoin="round" points="394.523904 377.457134 399.267729 377.457134 399.267729 178.339953 394.523904 178.339953"></polygon>
                <polygon id="Stroke-29" stroke="#221F20" stroke-width="0.5" stroke-linecap="round" stroke-linejoin="round" points="342.348526 178.339953 399.267729 178.339953 399.267729 173.598471 342.348526 173.598471"></polygon>
                <polygon id="Stroke-30" stroke="#221F20" stroke-width="0.5" stroke-linecap="round" stroke-linejoin="round" points="261.715219 846.80537 337.606375 846.80537 337.606375 842.063888 261.715219 842.063888"></polygon>
                <polygon id="Stroke-31" stroke="#221F20" stroke-width="0.5" stroke-linecap="round" stroke-linejoin="round" points="342.348526 443.8312 399.267729 443.8312 399.267729 439.089717 342.348526 439.089717"></polygon>
                <polygon id="Stroke-32" stroke="#221F20" stroke-width="0.5" stroke-linecap="round" stroke-linejoin="round" points="342.348526 382.198616 399.267729 382.198616 399.267729 377.457134 342.348526 377.457134"></polygon>
                <polygon id="Stroke-33" stroke="#221F20" stroke-width="0.5" stroke-linecap="round" stroke-linejoin="round" points="342.348526 633.465415 399.267729 633.465415 399.267729 628.723932 342.348526 628.723932"></polygon>
                <polygon id="Stroke-34" stroke="#221F20" stroke-width="0.5" stroke-linecap="round" stroke-linejoin="round" points="186.771323 642.947209 186.771323 685.615535 191.515147 685.615535 191.515147 628.724434 186.771323 628.724434 186.771323 638.205727 115.622319 638.205727 115.622319 628.724434 110.880167 628.724434 110.880167 685.615535 115.622319 685.615535 115.622319 642.947209"></polygon>
                <polygon id="Stroke-35" stroke="#221F20" stroke-width="0.5" stroke-linecap="round" stroke-linejoin="round" points="244.63745 685.615033 249.381275 685.615033 249.381275 628.723932 244.63745 628.723932"></polygon>
                <polygon id="Stroke-36" stroke="#221F20" stroke-width="0.75" stroke-linecap="round" stroke-linejoin="round" points="342.348526 690.356516 399.267729 690.356516 399.267729 685.615033 342.348526 685.615033"></polygon>
                <polygon id="Stroke-37" stroke="#221F20" stroke-width="0.5" stroke-linecap="round" stroke-linejoin="round" points="53.0120319 685.615033 57.7558566 685.615033 57.7558566 628.723932 53.0120319 628.723932"></polygon>
                <polygon id="Stroke-38" stroke="#221F20" stroke-width="0.5" stroke-linecap="round" stroke-linejoin="round" points="53.0121992 443.829862 27.8724382 443.829862 27.8724382 586.055941 53.0121992 586.055941 53.0121992 594.115625 19.8087729 594.115625 19.8087729 435.770178 53.0121992 435.770178"></polygon>
                <polygon id="Stroke-39" stroke="#221F20" stroke-width="0.75" stroke-linecap="round" stroke-linejoin="round" points="342.348526 21.8910988 399.267729 21.8910988 399.267729 17.1496163 342.348526 17.1496163"></polygon>
                <polygon id="Stroke-40" stroke="#221F20" stroke-width="0.5" stroke-linecap="round" stroke-linejoin="round" points="19.8086056 435.769843 53.0120319 435.769843 53.0120319 378.878742 19.8086056 378.878742"></polygon>
                <polygon id="Stroke-41" stroke="#221F20" stroke-width="0.5" stroke-linecap="round" stroke-linejoin="round" points="53.0120319 685.615033 249.381275 685.615033 249.381275 628.723932 53.0120319 628.723932"></polygon>
                <polygon id="Stroke-42" stroke="#221F20" stroke-width="0.5" stroke-linecap="round" stroke-linejoin="round" points="115.622151 638.206897 186.771155 638.206897 186.771155 633.465415 115.622151 633.465415"></polygon>
                <polygon id="Stroke-43" stroke="#221F20" stroke-width="0.5" stroke-linecap="round" stroke-linejoin="round" points="115.622151 633.465415 186.771155 633.465415 186.771155 628.723932 115.622151 628.723932"></polygon>
                <polygon id="Stroke-44" stroke="#221F20" stroke-width="0.5" stroke-linecap="round" stroke-linejoin="round" points="57.7558566 631.093837 84.3179283 631.093837 84.3179283 628.723932 57.7558566 628.723932"></polygon>
                <polygon id="Stroke-45" stroke="#221F20" stroke-width="0.5" stroke-linecap="round" stroke-linejoin="round" points="84.3179283 631.093837 110.88 631.093837 110.88 628.723932 84.3179283 628.723932"></polygon>
                <polygon id="Stroke-46" stroke="#221F20" stroke-width="0.5" stroke-linecap="round" stroke-linejoin="round" points="218.077052 631.093837 244.639124 631.093837 244.639124 628.723932 218.077052 628.723932"></polygon>
                <polygon id="Stroke-47" stroke="#221F20" stroke-width="0.5" stroke-linecap="round" stroke-linejoin="round" points="191.51498 631.093837 218.077052 631.093837 218.077052 628.723932 191.51498 628.723932"></polygon>
                <polygon id="Stroke-48" stroke="#221F20" stroke-width="0.5" stroke-linecap="round" stroke-linejoin="round" points="342.350199 57.4480368 344.721275 57.4480368 344.721275 21.8910988 342.350199 21.8910988"></polygon>
                <polygon id="Stroke-49" stroke="#221F20" stroke-width="0.5" stroke-linecap="round" stroke-linejoin="round" points="342.350199 93.0049748 344.721275 93.0049748 344.721275 57.4480368 342.350199 57.4480368"></polygon>
                <polygon id="Stroke-50" stroke="#221F20" stroke-width="0.5" stroke-linecap="round" stroke-linejoin="round" points="342.350199 685.615033 344.721275 685.615033 344.721275 633.465415 342.350199 633.465415"></polygon>
                <polygon id="Stroke-51" stroke="#221F20" stroke-width="0.5" stroke-linecap="round" stroke-linejoin="round" points="19.8102789 12.4081337 342.350199 12.4081337 342.350199 7.66665116 19.8102789 7.66665116"></polygon>
                <polygon id="Stroke-52" stroke="#221F20" stroke-width="0.5" stroke-linecap="round" stroke-linejoin="round" points="235.62502 704.579291 249.381275 704.579291 249.381275 699.837808 235.62502 699.837808"></polygon>
                <g id="Group-56" transform="translate(256.015936, 841.540258)" stroke-linecap="round" stroke-width="0.5" stroke="#221F20" stroke-linejoin="round">
                    <polygon id="Stroke-53" points="81.5887649 19.4878876 86.3325896 19.4878876 86.3325896 0.523629845 81.5887649 0.523629845"></polygon>
                    <polygon id="Stroke-55" points="0.955458167 19.4878876 5.69928287 19.4878876 5.69928287 0.523629845 0.955458167 0.523629845"></polygon>
                </g>
                <polygon id="Stroke-57" stroke="#221F20" stroke-width="0.5" stroke-linecap="round" stroke-linejoin="round" points="240.305259 780.432977 245.049084 780.432977 245.049084 704.579291 240.305259 704.579291"></polygon>
                <polygon id="Stroke-58" stroke="#221F20" stroke-width="0.5" stroke-linecap="round" stroke-linejoin="round" points="131.038327 704.579291 144.792908 704.579291 144.792908 699.837808 131.038327 699.837808"></polygon>
                <polygon id="Stroke-59" stroke="#221F20" stroke-width="0.5" stroke-linecap="round" stroke-linejoin="round" points="140.781992 780.432977 145.525817 780.432977 145.525817 704.579291 140.781992 704.579291"></polygon>
                <polygon id="Stroke-60" stroke="#221F20" stroke-width="0.5" stroke-linecap="round" stroke-linejoin="round" points="124.161036 699.837808 128.904861 699.837808 128.904861 685.615033 124.161036 685.615033"></polygon>
                <polygon id="Stroke-61" stroke="#221F20" stroke-width="0.5" stroke-linecap="round" stroke-linejoin="round" points="53.0120319 699.837808 57.7558566 699.837808 57.7558566 685.615033 53.0120319 685.615033"></polygon>
                <polygon id="Stroke-62" stroke="#221F20" stroke-width="0.5" stroke-linecap="round" stroke-linejoin="round" points="57.7558566 699.837808 124.161036 699.837808 124.161036 695.096326 57.7558566 695.096326"></polygon>
                <path d="M397.370701,704.578789 L344.246558,704.578789" id="Stroke-63" stroke="#221F20" stroke-width="0.5" stroke-linecap="round" stroke-linejoin="round"></path>
                <polygon id="Stroke-64" stroke="#221F20" stroke-width="0.255" stroke-linecap="round" stroke-linejoin="round" points="397.370199 704.579291 399.267729 704.579291 399.267729 690.356516 397.370199 690.356516"></polygon>
                <polygon id="Stroke-65" stroke="#221F20" stroke-width="0.5" stroke-linecap="round" stroke-linejoin="round" points="342.348526 704.579291 344.246056 704.579291 344.246056 690.356516 342.348526 690.356516"></polygon>
                <polygon id="Stroke-66" stroke="#221F20" stroke-width="0.5" stroke-linecap="round" stroke-linejoin="round" points="19.8086056 17.1496163 342.348526 17.1496163 342.348526 2.92684109 19.8086056 2.92684109"></polygon>
                <path d="M105.187745,179.762231 L105.187745,364.656636" id="Stroke-67" stroke="#221F20" stroke-width="0.5" stroke-linecap="round" stroke-linejoin="round"></path>
                <path d="M46.1680398,364.656971 L46.1680398,179.762566" id="Stroke-68" stroke="#221F20" stroke-width="0.5" stroke-linecap="round" stroke-linejoin="round"></path>
                <path d="M29.2959203,378.879578 L19.8099442,378.879578" id="Stroke-69" stroke="#221F20" stroke-width="0.5" stroke-linecap="round" stroke-linejoin="round"></path>
                <path d="M32.4581355,378.879578 L32.4581355,364.656803" id="Stroke-70" stroke="#221F20" stroke-width="0.5" stroke-linecap="round" stroke-linejoin="round"></path>
                <path d="M32.4581355,378.879578 L29.2955857,378.879578" id="Stroke-71" stroke="#221F20" stroke-width="0.5" stroke-linecap="round" stroke-linejoin="round"></path>
                <path d="M105.187745,364.656971 L46.1551554,364.656971" id="Stroke-72" stroke="#221F20" stroke-width="0.5" stroke-linecap="round" stroke-linejoin="round"></path>
                <path d="M105.187745,378.879578 L32.4574661,378.879578" id="Stroke-73" stroke="#221F20" stroke-width="0.5" stroke-linecap="round" stroke-linejoin="round"></path>
                <g id="Group-142" transform="translate(0.000000, 0.954986)">
                    <path d="M363.344008,741.611524 C362.067275,742.528043 361.77612,744.30589 362.693092,745.581993 C363.611737,746.856423 365.388789,747.147435 366.665522,746.230915 C367.942255,745.314396 368.23341,743.536549 367.316438,742.262119 C366.399466,740.986016 364.620741,740.695004 363.344008,741.611524 L363.344008,741.611524 Z" id="Stroke-74" stroke="#221F20" stroke-width="0.5" stroke-linecap="round" stroke-linejoin="round"></path>
                    <mask id="mask-2" fill="white">
                        <use xlink:href="#path-1"></use>
                    </mask>
                    <g id="Clip-77"></g>
                    <polygon id="Stroke-76" stroke="#221F20" stroke-width="0.5" stroke-linecap="round" stroke-linejoin="round" mask="url(#mask-2)" points="344.246056 763.358622 375.551952 763.358622 375.551952 724.483483 344.246056 724.483483"></polygon>
                    <polygon id="Stroke-78" stroke="#221F20" stroke-width="0.5" stroke-linecap="round" stroke-linejoin="round" mask="url(#mask-2)" points="342.348526 765.255215 385.037928 765.255215 385.037928 722.58689 342.348526 722.58689"></polygon>
                    <path d="M105.187745,377.924592 L105.187745,363.701817" id="Stroke-79" stroke="#221F20" stroke-width="0.5" stroke-linecap="round" stroke-linejoin="round" mask="url(#mask-2)"></path>
                    <path d="M46.1680398,302.070404 L105.187243,302.070404" id="Stroke-80" stroke="#221F20" stroke-width="0.5" stroke-linecap="round" stroke-linejoin="round" mask="url(#mask-2)"></path>
                    <polygon id="Stroke-81" stroke="#221F20" stroke-width="0.5" stroke-linecap="round" stroke-linejoin="round" mask="url(#mask-2)" points="342.348526 784.219473 399.267729 784.219473 399.267729 689.401529 342.348526 689.401529"></polygon>
                    <polygon id="Stroke-82" stroke="#221F20" stroke-width="0.5" stroke-linecap="round" stroke-linejoin="round" mask="url(#mask-2)" points="342.348526 684.660047 399.267729 684.660047 399.267729 632.510428 342.348526 632.510428"></polygon>
                    <polygon id="Stroke-83" stroke="#221F20" stroke-width="0.5" stroke-linecap="round" stroke-linejoin="round" mask="url(#mask-2)" points="342.348526 627.768946 399.267729 627.768946 399.267729 442.874541 342.348526 442.874541"></polygon>
                    <path d="M394.212837,381.243295 L394.212837,438.134396" id="Stroke-84" stroke="#221F20" stroke-width="0.5" stroke-linecap="round" stroke-linejoin="round" mask="url(#mask-2)"></path>
                    <path d="M342.349195,437.242797 L342.349195,436.493525" id="Stroke-85" stroke="#221F20" stroke-width="0.5" stroke-linecap="round" stroke-linejoin="round" mask="url(#mask-2)"></path>
                    <polygon id="Stroke-86" stroke="#221F20" stroke-width="0.5" stroke-linecap="round" stroke-linejoin="round" mask="url(#mask-2)" points="147.876813 328.145715 204.796016 328.145715 204.796016 214.365186 147.876813 214.365186"></polygon>
                    <path d="M207.630263,795.267211 C207.630263,790.930469 206.149386,788.18091 202.817833,785.499924 C201.11608,784.130162 199.285482,783.193573 197.232335,782.486114 C191.631777,780.557744 185.320064,781.144784 180.209785,784.183682 C173.884685,787.945091 173.478072,792.878909 173.478072,799.307924 L173.478072,816.94256 L173.478072,821.351219 L173.478072,823.555548 C173.478072,823.881682 173.325801,824.308164 173.829466,824.308164 L174.932175,824.308164 L183.753849,824.308164 L201.397195,824.308164 L205.808032,824.308164 C206.217992,824.308164 207.630263,824.691162 207.630263,823.923494 L207.630263,821.719164 L207.630263,812.901847 L207.630263,795.267211 L207.630263,795.267211 Z" id="Stroke-87" stroke="#221F20" stroke-width="0.5" stroke-linecap="round" stroke-linejoin="round" mask="url(#mask-2)"></path>
                    <path d="M209.538837,795.597024 C209.538837,787.115875 202.746884,781.563239 195.141705,779.954313 C187.857801,778.413958 179.076287,780.631667 174.4429,786.978731 C170.766645,792.017916 171.593259,797.047065 171.593259,802.469247 L171.593259,809.398334 L171.593259,832.428392 L171.593259,838.186743 L171.593259,841.065082 C171.593259,841.514979 172.041705,841.110239 172.267602,841.110239 L172.988797,841.110239 L174.427841,841.110239 L185.948558,841.110239 L208.989992,841.110239 C209.199155,841.110239 209.538837,841.304247 209.538837,840.937974 L209.538837,840.218807 L209.538837,838.778801 L209.538837,835.900462 L209.538837,830.142111 L209.538837,818.627082 L209.538837,795.597024 L209.538837,795.597024 Z" id="Stroke-88" stroke="#221F20" stroke-width="0.5" stroke-linecap="round" stroke-linejoin="round" mask="url(#mask-2)"></path>
                    <path d="M344.578207,437.242797 L344.578207,436.493525" id="Stroke-89" stroke="#221F20" stroke-width="0.5" stroke-linecap="round" stroke-linejoin="round" mask="url(#mask-2)"></path>
                    <polygon id="Stroke-90" stroke="#221F20" stroke-width="0.5" stroke-linecap="round" stroke-linejoin="round" mask="url(#mask-2)" points="342.348526 92.0499884 399.267729 92.0499884 399.267729 20.9361124 342.348526 20.9361124"></polygon>
                    <polyline id="Stroke-91" stroke="#221F20" stroke-width="0.5" mask="url(#mask-2)" points="46.1680398 35.6323669 44.2152908 35.6323669 38.5561673 35.6323669 29.2960876 35.6323669"></polyline>
                    <polyline id="Stroke-92" stroke="#221F20" stroke-width="0.5" mask="url(#mask-2)" points="46.1680398 158.895527 44.2286773 158.895527 38.5695538 158.895527 29.3078008 158.895527"></polyline>
                    <path d="M19.8094422,158.895527 L19.8094422,21.4092572" id="Stroke-93" stroke="#221F20" stroke-width="0.113" stroke-linecap="round" stroke-linejoin="round" mask="url(#mask-2)"></path>
                    <path d="M29.2959203,158.895527 L19.8099442,158.895527" id="Stroke-94" stroke="#221F20" stroke-width="0.5" mask="url(#mask-2)"></path>
                    <path d="M29.2959203,158.895527 L29.2959203,21.4092572" id="Stroke-95" stroke="#221F20" stroke-width="0.5" mask="url(#mask-2)"></path>
                    <path d="M29.2959203,21.4097589 L19.8099442,21.4097589" id="Stroke-96" stroke="#221F20" stroke-width="0.5" mask="url(#mask-2)"></path>
                    <path d="M105.187745,35.6323669 L105.187745,158.895861" id="Stroke-97" stroke="#221F20" stroke-width="0.5" mask="url(#mask-2)"></path>
                    <path d="M46.1680398,158.895527 L46.1680398,35.6320324" id="Stroke-98" stroke="#221F20" stroke-width="0.5" mask="url(#mask-2)"></path>
                    <path d="M46.1680398,158.895527 L105.187243,158.895527" id="Stroke-99" stroke="#221F20" stroke-width="0.5" mask="url(#mask-2)"></path>
                    <path d="M46.1680398,97.2639467 L105.187243,97.2639467" id="Stroke-100" stroke="#221F20" stroke-width="0.5" mask="url(#mask-2)"></path>
                    <path d="M32.4581355,35.6323669 L32.4581355,21.4095917" id="Stroke-101" stroke="#221F20" stroke-width="0.5" mask="url(#mask-2)"></path>
                    <path d="M32.4581355,21.4097589 L29.2955857,21.4097589" id="Stroke-102" stroke="#221F20" stroke-width="0.5" mask="url(#mask-2)"></path>
                    <path d="M105.187745,21.4097589 L32.4574661,21.4097589" id="Stroke-103" stroke="#221F20" stroke-width="0.5" mask="url(#mask-2)"></path>
                    <path d="M46.1680398,35.6323669 L105.187243,35.6323669" id="Stroke-104" stroke="#221F20" stroke-width="0.5" mask="url(#mask-2)"></path>
                    <path d="M105.187745,35.6323669 L105.187745,21.4095917" id="Stroke-105" stroke="#221F20" stroke-width="0.5" mask="url(#mask-2)"></path>
                    <path d="M345.469745,437.242797 L342.349028,437.242797" id="Stroke-106" stroke="#221F20" stroke-width="0.5" stroke-linecap="round" stroke-linejoin="round" mask="url(#mask-2)"></path>
                    <path d="M342.349195,387.481314 L344.57804,387.481314" id="Stroke-107" stroke="#221F20" stroke-width="0.5" stroke-linecap="round" stroke-linejoin="round" mask="url(#mask-2)"></path>
                    <path d="M344.578207,387.481314 L344.578207,383.025825" id="Stroke-108" stroke="#221F20" stroke-width="0.5" stroke-linecap="round" stroke-linejoin="round" mask="url(#mask-2)"></path>
                    <path d="M19.8094422,377.924592 L19.8094422,178.807412" id="Stroke-109" stroke="#221F20" stroke-width="0.113" stroke-linecap="round" stroke-linejoin="round" mask="url(#mask-2)"></path>
                    <path d="M344.578207,383.025658 L342.349363,383.025658" id="Stroke-110" stroke="#221F20" stroke-width="0.5" stroke-linecap="round" stroke-linejoin="round" mask="url(#mask-2)"></path>
                    <path d="M342.349195,383.025658 L342.349195,387.481146" id="Stroke-111" stroke="#221F20" stroke-width="0.5" stroke-linecap="round" stroke-linejoin="round" mask="url(#mask-2)"></path>
                    <path d="M342.349195,432.038539 L344.57804,432.038539" id="Stroke-112" stroke="#221F20" stroke-width="0.5" stroke-linecap="round" stroke-linejoin="round" mask="url(#mask-2)"></path>
                    <path d="M344.578207,432.038539 L344.578207,436.494027" id="Stroke-113" stroke="#221F20" stroke-width="0.5" stroke-linecap="round" stroke-linejoin="round" mask="url(#mask-2)"></path>
                    <path d="M344.578207,436.494194 L342.349363,436.494194" id="Stroke-114" stroke="#221F20" stroke-width="0.5" stroke-linecap="round" stroke-linejoin="round" mask="url(#mask-2)"></path>
                    <polyline id="Stroke-115" stroke="#221F20" stroke-width="0.5" stroke-linecap="round" stroke-linejoin="round" mask="url(#mask-2)" points="92.5439044 442.874875 92.5439044 524.624055 92.5439044 585.100955"></polyline>
                    <polyline id="Stroke-116" stroke="#221F20" stroke-width="0.5" stroke-linecap="round" stroke-linejoin="round" mask="url(#mask-2)" points="53.0121992 442.874875 222.819371 442.874875 222.819371 585.100955 53.0121992 585.100955"></polyline>
                    <polygon id="Stroke-117" stroke="#221F20" stroke-width="0.5" stroke-linecap="round" stroke-linejoin="round" mask="url(#mask-2)" points="191.51498 684.660047 244.639124 684.660047 244.639124 630.140523 191.51498 630.140523"></polygon>
                    <polygon id="Stroke-118" stroke="#221F20" stroke-width="0.5" stroke-linecap="round" stroke-linejoin="round" mask="url(#mask-2)" points="57.7558566 684.660047 110.88 684.660047 110.88 630.140523 57.7558566 630.140523"></polygon>
                    <path d="M342.349195,436.494194 L342.349195,432.038706" id="Stroke-119" stroke="#221F20" stroke-width="0.5" stroke-linecap="round" stroke-linejoin="round" mask="url(#mask-2)"></path>
                    <polygon id="Stroke-120" stroke="#221F20" stroke-width="0.5" stroke-linecap="round" stroke-linejoin="round" mask="url(#mask-2)" points="115.622151 684.660047 186.771155 684.660047 186.771155 641.991721 115.622151 641.991721"></polygon>
                    <path d="M46.1680398,240.438824 L105.187243,240.438824" id="Stroke-121" stroke="#221F20" stroke-width="0.5" stroke-linecap="round" stroke-linejoin="round" mask="url(#mask-2)"></path>
                    <path d="M342.349195,382.134393 L345.469912,382.134393" id="Stroke-122" stroke="#221F20" stroke-width="0.5" stroke-linecap="round" stroke-linejoin="round" mask="url(#mask-2)"></path>
                    <path d="M342.349195,383.025658 L342.349195,382.134226" id="Stroke-123" stroke="#221F20" stroke-width="0.5" stroke-linecap="round" stroke-linejoin="round" mask="url(#mask-2)"></path>
                    <polyline id="Stroke-124" stroke="#221F20" stroke-width="0.5" stroke-linecap="round" stroke-linejoin="round" mask="url(#mask-2)" points="46.1556574 363.701984 44.2162948 363.701984 38.5571713 363.701984 29.2954183 363.701984"></polyline>
                    <polygon id="Stroke-125" stroke="#221F20" stroke-width="0.5" stroke-linecap="round" stroke-linejoin="round" mask="url(#mask-2)" points="19.8086056 684.661719 53.0120319 684.661719 53.0120319 593.161977 19.8086056 593.161977"></polygon>
                    <path d="M344.578207,383.025658 L344.578207,382.134226" id="Stroke-126" stroke="#221F20" stroke-width="0.5" stroke-linecap="round" stroke-linejoin="round" mask="url(#mask-2)"></path>
                    <path d="M46.1680398,178.807245 L105.187243,178.807245" id="Stroke-127" stroke="#221F20" stroke-width="0.5" stroke-linecap="round" stroke-linejoin="round" mask="url(#mask-2)"></path>
                    <path d="M345.469745,438.133894 L345.469745,381.242794" id="Stroke-128" stroke="#221F20" stroke-width="0.5" stroke-linecap="round" stroke-linejoin="round" mask="url(#mask-2)"></path>
                    <polyline id="Stroke-129" stroke="#221F20" stroke-width="0.5" stroke-linecap="round" stroke-linejoin="round" mask="url(#mask-2)" points="46.1680398 178.807245 44.2286773 178.807245 38.5695538 178.807245 29.3078008 178.807245"></polyline>
                    <path d="M29.2959203,377.924592 L29.2959203,178.807412" id="Stroke-130" stroke="#221F20" stroke-width="0.5" stroke-linecap="round" stroke-linejoin="round" mask="url(#mask-2)"></path>
                    <path d="M345.469745,381.243295 L394.213171,381.243295" id="Stroke-131" stroke="#221F20" stroke-width="0.5" stroke-linecap="round" stroke-linejoin="round" mask="url(#mask-2)"></path>
                    <path d="M394.212837,438.133894 L345.46941,438.133894" id="Stroke-132" stroke="#221F20" stroke-width="0.5" stroke-linecap="round" stroke-linejoin="round" mask="url(#mask-2)"></path>
                    <path d="M29.2959203,178.807245 L19.8099442,178.807245" id="Stroke-133" stroke="#221F20" stroke-width="0.5" stroke-linecap="round" stroke-linejoin="round" mask="url(#mask-2)"></path>
                    <polygon id="Stroke-134" stroke="#221F20" stroke-width="0.5" stroke-linecap="round" stroke-linejoin="round" mask="url(#mask-2)" points="342.348526 841.110574 399.267729 841.110574 399.267729 784.219473 342.348526 784.219473"></polygon>
                    <polygon id="Stroke-135" stroke="#221F20" stroke-width="0.5" stroke-linecap="round" stroke-linejoin="round" mask="url(#mask-2)" points="348.041116 542.433967 393.576813 542.433967 393.576813 519.678196 348.041116 519.678196"></polygon>
                    <path d="M360.373554,538.640781 C356.18192,538.640781 352.785108,535.243973 352.785108,531.056081 C352.785108,526.866517 356.18192,523.469709 360.373554,523.469709 C364.565187,523.469709 367.962,526.866517 367.962,531.056081 C367.962,535.243973 364.565187,538.640781 360.373554,538.640781 L360.373554,538.640781 Z" id="Stroke-136" stroke="#221F20" stroke-width="0.5" stroke-linecap="round" stroke-linejoin="round" mask="url(#mask-2)"></path>
                    <path d="M381.243705,538.640781 C385.435339,538.640781 388.832151,535.243973 388.832151,531.056081 C388.832151,526.866517 385.435339,523.469709 381.243705,523.469709 C377.052072,523.469709 373.655259,526.866517 373.655259,531.056081 C373.655259,535.243973 377.052072,538.640781 381.243705,538.640781 L381.243705,538.640781 Z" id="Stroke-137" stroke="#221F20" stroke-width="0.5" stroke-linecap="round" stroke-linejoin="round" mask="url(#mask-2)"></path>
                    <polygon id="Stroke-138" stroke="#221F20" stroke-width="0.5" stroke-linecap="round" stroke-linejoin="round" mask="url(#mask-2)" points="349.463426 613.546171 392.152829 613.546171 392.152829 570.877845 349.463426 570.877845"></polygon>
                    <polygon id="Stroke-139" stroke="#221F20" stroke-width="0.5" stroke-linecap="round" stroke-linejoin="round" stroke-dasharray="1.417,1.417" mask="url(#mask-2)" points="19.8102789 172.643484 399.269402 172.643484 399.269402 165.058785 19.8102789 165.058785"></polygon>
                    <polygon id="Stroke-140" stroke="#221F20" stroke-width="0.5" stroke-linecap="round" stroke-linejoin="round" stroke-dasharray="1.417,1.417" mask="url(#mask-2)" points="337.604701 627.768946 342.348526 627.768946 342.348526 177.384967 337.604701 177.384967"></polygon>
                    <polygon id="Stroke-141" stroke="#221F20" stroke-width="0.5" stroke-linecap="round" stroke-linejoin="round" stroke-dasharray="1.417,1.417" mask="url(#mask-2)" points="342.348526 499.765641 399.267729 499.765641 399.267729 442.874541 342.348526 442.874541"></polygon>
                </g>
            </g>
        </g>
    </g>
</svg>