<?xml version="1.0" encoding="UTF-8" standalone="no"?>
<svg width="114px" height="105px" viewBox="0 0 114 105" version="1.1" xmlns="http://www.w3.org/2000/svg" xmlns:xlink="http://www.w3.org/1999/xlink">
    <!-- Generator: Sketch 39.1 (31720) - http://www.bohemiancoding.com/sketch -->
    <title>Group</title>
    <desc>Created with Sketch.</desc>
    <defs>
        <path d="M0,9.99677052 C0,4.47570661 4.47026698,1.7741393e-25 9.99942918,1.66176113e-25 L91.7481447,2.74129165e-29 C97.2706769,-1.11967959e-26 101.747574,4.48558331 101.747574,9.99677052 L101.747574,83.0032295 C101.747574,88.5242934 97.2773069,93 91.7481447,93 L9.99942918,93 C4.47689694,93 0,88.5144167 0,83.0032295 L0,9.99677052 Z" id="path-1"></path>
        <filter x="-50%" y="-50%" width="200%" height="200%" filterUnits="objectBoundingBox" id="filter-2">
            <feMorphology radius="2.5" operator="dilate" in="SourceAlpha" result="shadowSpreadOuter1"></feMorphology>
            <feOffset dx="0" dy="3" in="shadowSpreadOuter1" result="shadowOffsetOuter1"></feOffset>
            <feGaussianBlur stdDeviation="1.5" in="shadowOffsetOuter1" result="shadowBlurOuter1"></feGaussianBlur>
            <feComposite in="shadowBlurOuter1" in2="SourceAlpha" operator="out" result="shadowBlurOuter1"></feComposite>
            <feColorMatrix values="0 0 0 0 0.587372449   0 0 0 0 0.587372449   0 0 0 0 0.587372449  0 0 0 0.503198596 0" type="matrix" in="shadowBlurOuter1"></feColorMatrix>
        </filter>
        <mask id="mask-3" maskContentUnits="userSpaceOnUse" maskUnits="objectBoundingBox" x="-2" y="-2" width="105.747574" height="97">
            <rect x="-2" y="-2" width="105.747574" height="97" fill="white"></rect>
            <use xlink:href="#path-1" fill="black"></use>
        </mask>
    </defs>
    <g id="Page-1" stroke="none" stroke-width="1" fill="none" fill-rule="evenodd">
        <g id="home_appliance_selected" transform="translate(-735.000000, -848.000000)">
            <g id="Side-Buttons" transform="translate(741.000000, 851.000000)">
                <g id="Group">
                    <g id="Rectangle-14">
                        <use fill="black" fill-opacity="1" filter="url(#filter-2)" xlink:href="#path-1"></use>
                        <use fill="#FFFFFF" fill-rule="evenodd" xlink:href="#path-1"></use>
                        <use stroke="#009B63" mask="url(#mask-3)" stroke-width="4" xlink:href="#path-1"></use>
                    </g>
                    <g id="refresh" transform="translate(32.000000, 26.000000)" fill="#019B63">
                        <path d="M20.9540217,0 L3.9975,1.596 L8.40619565,5.964 L8.40619565,5.964 C5.77793478,8.736 3.74315217,11.592 2.47141304,14.364 C0.860543478,17.472 0.0975,20.496 0.0127173913,23.352 C-0.0720652174,25.62 0.267065217,27.888 1.0301087,29.988 C1.19967391,30.576 1.45402174,31.08 1.62358696,31.668 C2.81054348,34.272 4.33663043,36.792 6.62576087,38.808 C7.21923913,39.312 8.99967391,40.572 9.33880435,40.236 C9.33880435,40.236 7.55836957,37.632 6.79532609,33.516 C6.54097826,32.256 6.45619565,30.912 6.45619565,29.568 L6.62576087,29.568 L6.45619565,29.4 C6.45619565,28.56 6.54097826,27.72 6.71054348,26.88 C7.13445652,24.528 8.15184783,22.092 9.59315217,19.488 C10.7801087,17.388 12.4757609,15.204 14.4257609,13.02 L14.8496739,12.6 L19.2583696,16.968 L20.9540217,0 L20.9540217,0 Z" id="Shape"></path>
                        <path d="M17.8043478,41.9721758 L34.7608696,40.3761758 L30.3521739,36.0081758 L30.3521739,36.0081758 C32.9804348,33.2361758 35.0152174,30.3801758 36.2869565,27.6081758 C37.8978261,24.5001758 38.6608696,21.4761758 38.7456522,18.6201758 C38.8304348,16.3521758 38.4913043,14.0841758 37.7282609,11.9841758 C37.5586957,11.3961758 37.3043478,10.8921758 37.1347826,10.3041758 C35.9478261,7.7001758 34.4217391,5.1801758 32.1326087,3.1641758 C31.5391304,2.6601758 29.7586957,1.4001758 29.4195652,1.7361758 C29.4195652,1.7361758 31.2,4.3401758 31.9630435,8.4561758 C32.2173913,9.7161758 32.3021739,11.0601758 32.3021739,12.4041758 L32.1326087,12.4041758 L32.3021739,12.5721758 C32.3021739,13.4121758 32.2173913,14.2521758 32.0478261,15.0921758 C31.623913,17.4441758 30.6065217,19.8801758 29.1652174,22.4841758 C27.9782609,24.5841758 26.2826087,26.7681758 24.3326087,28.9521758 L23.9086957,29.3721758 L19.5,25.0041758 L17.8043478,41.9721758 L17.8043478,41.9721758 Z" id="Shape"></path>
                    </g>
                </g>
            </g>
        </g>
    </g>
</svg>