<?xml version="1.0" encoding="UTF-8" standalone="no"?>
<svg width="126px" height="126px" viewBox="0 0 126 126" version="1.1" xmlns="http://www.w3.org/2000/svg" xmlns:xlink="http://www.w3.org/1999/xlink">
    <!-- Generator: Sketch 39.1 (31720) - http://www.bohemiancoding.com/sketch -->
    <title>Group</title>
    <desc>Created with Sketch.</desc>
    <defs>
        <ellipse id="path-1" cx="52.9020788" cy="52.955761" rx="52.9020788" ry="52.955761"></ellipse>
        <filter x="-50%" y="-50%" width="200%" height="200%" filterUnits="objectBoundingBox" id="filter-2">
            <feMorphology radius="6.5" operator="dilate" in="SourceAlpha" result="shadowSpreadOuter1"></feMorphology>
            <feOffset dx="0" dy="3" in="shadowSpreadOuter1" result="shadowOffsetOuter1"></feOffset>
            <feGaussianBlur stdDeviation="1.5" in="shadowOffsetOuter1" result="shadowBlurOuter1"></feGaussianBlur>
            <feComposite in="shadowBlurOuter1" in2="SourceAlpha" operator="out" result="shadowBlurOuter1"></feComposite>
            <feColorMatrix values="0 0 0 0 0.143893495   0 0 0 0 0.140362018   0 0 0 0 0.140362018  0 0 0 0.371574955 0" type="matrix" in="shadowBlurOuter1"></feColorMatrix>
        </filter>
        <mask id="mask-3" maskContentUnits="userSpaceOnUse" maskUnits="objectBoundingBox" x="-6" y="-6" width="117.804158" height="117.911522">
            <rect x="-6" y="-6" width="117.804158" height="117.911522" fill="white"></rect>
            <use xlink:href="#path-1" fill="black"></use>
        </mask>
    </defs>
    <g id="Symbols" stroke="none" stroke-width="1" fill="none" fill-rule="evenodd">
        <g id="ModeSleep" transform="translate(-3.000000, -6.000000)">
            <g transform="translate(13.000000, 13.000000)" id="Group">
                <g>
                    <g id="Oval-1">
                        <use fill="black" fill-opacity="1" filter="url(#filter-2)" xlink:href="#path-1"></use>
                        <use fill="#FFFFFF" fill-rule="evenodd" xlink:href="#path-1"></use>
                        <use stroke="#009B63" mask="url(#mask-3)" stroke-width="12" xlink:href="#path-1"></use>
                    </g>
                    <g id="sleeping_vec" transform="translate(25.687349, 32.874010)" stroke="#FFFFFF" fill="#009B63">
                        <path d="M9.36298139,23.8978806 C12.1379062,23.8978806 14.3946837,21.6473448 14.3946837,18.8800947 C14.3946837,16.1141157 12.1379062,13.8642155 9.36298139,13.8642155 C6.5893312,13.8642155 4.3331911,16.1141157 4.3331911,18.8800947 C4.33382843,21.6473448 6.58996853,23.8978806 9.36298139,23.8978806 L9.36298139,23.8978806 Z M9.36298139,15.7709106 C11.0831289,15.7709106 12.4827005,17.1666114 12.4827005,18.8800947 C12.4827005,20.5954847 11.0837662,21.9911855 9.36298139,21.9911855 C7.64410856,21.9911855 6.24517423,20.5961203 6.24517423,18.8800947 C6.24581156,17.1666114 7.64410856,15.7709106 9.36298139,15.7709106 L9.36298139,15.7709106 Z M46.8493227,18.0869095 L22.5900807,18.0869095 C18.704931,18.0869095 15.4959859,20.9977974 15.0230888,24.7463599 L2.23956957,24.7463599 L2.23956957,10.6577899 C2.23956957,10.1315421 1.81128535,9.7044424 1.28357801,9.7044424 C0.755870664,9.7044424 0.327586443,10.1315421 0.327586443,10.6577899 L0.327586443,39.0414885 C0.327586443,39.5690074 0.755870664,39.9961071 1.28357801,39.9961071 C1.81128535,39.9961071 2.23956957,39.5690074 2.23956957,39.0414885 L2.23956957,33.485379 L52.5693389,33.485379 L52.5693389,39.0414885 C52.5693389,39.5690074 52.9969858,39.9961071 53.5253304,39.9961071 C54.0536751,39.9961071 54.481322,39.5690074 54.481322,39.0414885 L54.481322,25.7175033 C54.481322,25.7111476 54.483234,25.704792 54.483234,25.6997074 C54.4825966,21.502436 51.0582349,18.0869095 46.8493227,18.0869095 L46.8493227,18.0869095 Z M26.447188,31.5786839 L2.23956957,31.5786839 L2.23956957,26.653055 L26.447188,26.653055 L26.447188,31.5786839 L26.447188,31.5786839 Z M26.447188,24.7463599 L16.9554664,24.7463599 C17.4124304,22.0541064 19.7616203,19.9936046 22.590718,19.9936046 L26.4478253,19.9936046 L26.4478253,24.7463599 L26.447188,24.7463599 Z M52.5687015,25.6997074 L52.5687015,31.5786839 L28.3591711,31.5786839 L28.3591711,19.9936046 L46.8493227,19.9936046 C50.0002709,19.9936046 52.5636029,22.5466693 52.5706135,25.6863606 C52.5699762,25.6908095 52.5687015,25.6946229 52.5687015,25.6997074 L52.5687015,25.6997074 Z" id="Shape" stroke-width="0.5"></path>
                        <path d="M26.3585994,1.90669508 L21.9361825,6.66072148 C21.6780647,6.9384634 21.608596,7.34268276 21.7609173,7.69033683 C21.9126013,8.03735533 22.2567583,8.26234535 22.6372429,8.26234535 L28.3610831,8.26234535 C28.8887905,8.26234535 29.3170747,7.83588122 29.3170747,7.30899781 C29.3170747,6.7821144 28.8887905,6.35565027 28.3610831,6.35565027 L24.8277383,6.35565027 L29.2501553,1.60162387 C29.508273,1.32388195 29.5777417,0.919662594 29.4254204,0.572008524 C29.2737364,0.22499002 28.9295794,-1.77635684e-15 28.5490948,-1.77635684e-15 L22.6251337,-1.77635684e-15 C22.0974264,-1.77635684e-15 21.6691422,0.426464133 21.6691422,0.95334754 C21.6691422,1.48023095 22.0974264,1.90669508 22.6251337,1.90669508 L26.3585994,1.90669508 Z" id="Shape"></path>
                        <path d="M18.6493065,11.4401705 C19.1770138,11.4401705 19.605298,11.0137064 19.605298,10.4868229 C19.605298,9.95993954 19.1770138,9.5334754 18.6493065,9.5334754 L17.3631792,9.5334754 L19.6435377,7.36302084 C19.9258739,7.09417683 20.0157371,6.680424 19.8704264,6.3187875 C19.7251156,5.957151 19.3745854,5.72008524 18.9832662,5.72008524 L15.4626679,5.72008524 C14.9349606,5.72008524 14.5066764,6.14654938 14.5066764,6.67343278 C14.5066764,7.20031619 14.9349606,7.62678032 15.4626679,7.62678032 L16.5971112,7.62678032 L14.3167527,9.79723489 C14.0344165,10.0660789 13.9445533,10.4798317 14.089864,10.8414682 C14.2351748,11.2031047 14.5863423,11.4401705 14.9770242,11.4401705 L18.6493065,11.4401705 Z" id="Shape"></path>
                    </g>
                </g>
            </g>
        </g>
    </g>
</svg>