<?xml version="1.0" encoding="UTF-8"?>
<svg width="302px" height="302px" viewBox="0 0 302 302" version="1.1" xmlns="http://www.w3.org/2000/svg" xmlns:xlink="http://www.w3.org/1999/xlink">
    <!-- Generator: Sketch 41.2 (35397) - http://www.bohemiancoding.com/sketch -->
    <title>sos_on</title>
    <desc>Created with Sketch.</desc>
    <defs>
        <path d="M0,22.99199 C0,10.2938646 10.2929507,1.72824173e-15 22.9978105,1.72824173e-15 L266.805738,1.72824173e-15 C279.507078,1.72824173e-15 289.803549,10.3048494 289.803549,22.99199 L289.803549,266.547097 C289.803549,279.245223 279.510598,289.539087 266.805738,289.539087 L22.9978105,289.539087 C10.2964705,289.539087 0,279.234238 0,266.547097 L0,22.99199 Z" id="path-1"></path>
        <filter x="-50%" y="-50%" width="200%" height="200%" filterUnits="objectBoundingBox" id="filter-2">
            <feMorphology radius="2.5" operator="dilate" in="SourceAlpha" result="shadowSpreadOuter1"></feMorphology>
            <feOffset dx="0" dy="3" in="shadowSpreadOuter1" result="shadowOffsetOuter1"></feOffset>
            <feGaussianBlur stdDeviation="1.5" in="shadowOffsetOuter1" result="shadowBlurOuter1"></feGaussianBlur>
            <feComposite in="shadowBlurOuter1" in2="SourceAlpha" operator="out" result="shadowBlurOuter1"></feComposite>
            <feColorMatrix values="0 0 0 0 0.587372449   0 0 0 0 0.587372449   0 0 0 0 0.587372449  0 0 0 0.503198596 0" type="matrix" in="shadowBlurOuter1"></feColorMatrix>
        </filter>
        <mask id="mask-3" maskContentUnits="userSpaceOnUse" maskUnits="objectBoundingBox" x="-2" y="-2" width="293.803549" height="293.539087">
            <rect x="-2" y="-2" width="293.803549" height="293.539087" fill="white"></rect>
            <use xlink:href="#path-1" fill="black"></use>
        </mask>
    </defs>
    <g id="Page-1" stroke="none" stroke-width="1" fill="none" fill-rule="evenodd">
        <g id="home_on" transform="translate(-16.000000, -17.000000)">
            <g id="sos_on" transform="translate(22.000000, 20.000000)">
                <g id="Rectangle-14">
                    <use fill="black" fill-opacity="1" filter="url(#filter-2)" xlink:href="#path-1"></use>
                    <use fill="#D0011B" fill-rule="evenodd" xlink:href="#path-1"></use>
                    <use stroke="#FFFFFF" mask="url(#mask-3)" stroke-width="4" xlink:href="#path-1"></use>
                </g>
                <g transform="translate(63.000000, 27.000000)" fill="#FFFFFF">
                    <path d="M153.439696,67.4323913 C147.755957,38.3262609 124.673739,15.2440435 95.5676087,9.56030435 C95.021913,4.20965217 90.5429565,0 85.0434783,0 L77.9565217,0 C72.4570435,0 67.978087,4.20965217 67.4323913,9.56030435 C38.3262609,15.2369565 15.2440435,38.3262609 9.56030435,67.4323913 C4.20965217,67.978087 0,72.4570435 0,77.9565217 L0,85.0434783 C0,90.5429565 4.20965217,95.021913 9.56030435,95.5676087 C15.2440435,124.673739 38.3262609,147.755957 67.4323913,153.439696 C67.978087,158.797435 72.4570435,163 77.9565217,163 L85.0434783,163 C90.5429565,163 95.021913,158.790348 95.5676087,153.439696 C124.673739,147.755957 147.755957,124.673739 153.439696,95.5676087 C158.797435,95.021913 163,90.5429565 163,85.0434783 L163,77.9565217 C163,72.4641304 158.790348,67.978087 153.439696,67.4323913 Z M95.673913,16.781913 C120.797174,22.2813913 140.718609,42.2028261 146.218087,67.326087 L121.50587,67.326087 C117.239522,55.3207826 107.679217,45.7604783 95.673913,41.4941304 L95.673913,16.781913 Z M67.326087,16.781913 L67.326087,41.4941304 C55.3207826,45.7675652 45.7604783,55.3207826 41.4941304,67.326087 L16.781913,67.326087 C22.2813913,42.2028261 42.2028261,22.2813913 67.326087,16.781913 Z M67.326087,146.218087 C42.2028261,140.718609 22.2813913,120.797174 16.781913,95.673913 L41.4941304,95.673913 C45.7604783,107.679217 55.3207826,117.239522 67.326087,121.50587 L67.326087,146.218087 Z M93.9021739,114.624435 C92.0028696,111.754217 88.7428696,109.847826 85.0434783,109.847826 L77.9565217,109.847826 C74.2571304,109.847826 70.9971304,111.754217 69.0978261,114.631522 C59.5658696,111.045522 51.9615652,103.441217 48.3755652,93.9092609 C51.2457826,92.0028696 53.1521739,88.7428696 53.1521739,85.0434783 L53.1521739,77.9565217 C53.1521739,74.2571304 51.2457826,70.9971304 48.3684783,69.0978261 C51.9544783,59.5658696 59.5587826,51.9544783 69.0907391,48.3755652 C70.9971304,51.2457826 74.2571304,53.1521739 77.9565217,53.1521739 L85.0434783,53.1521739 C88.7428696,53.1521739 92.0028696,51.2457826 93.9021739,48.3684783 C103.43413,51.9544783 111.045522,59.5587826 114.624435,69.0907391 C111.754217,70.9971304 109.847826,74.2571304 109.847826,77.9565217 L109.847826,85.0434783 C109.847826,88.7428696 111.754217,92.0028696 114.631522,93.9021739 C111.045522,103.43413 103.441217,111.045522 93.9021739,114.624435 Z M95.673913,146.218087 L95.673913,121.50587 C107.679217,117.239522 117.239522,107.679217 121.50587,95.673913 L146.218087,95.673913 C140.718609,120.797174 120.797174,140.718609 95.673913,146.218087 Z" id="sos"></path>
                    <text id="SOS" font-family="BebasNeue, Bebas Neue" font-size="55" font-weight="normal" line-spacing="50" letter-spacing="2.20000005">
                        <tspan x="39.4549999" y="227.83">SOS</tspan>
                    </text>
                </g>
            </g>
        </g>
    </g>
</svg>